<svg viewBox="0 0 96 96" xmlns="http://www.w3.org/2000/svg" xmlns:xlink="http://www.w3.org/1999/xlink" id="Icons_Bug" overflow="hidden"><g><path d="M32.4 7.7C34.3 8.6 35.9 10.1 37 11.9 38.3 13.9 39.1 15.9 39.5 17.9 35.5 20.5 32.9 25 32.9 30.1 32.9 31.8 33.2 33.4 33.7 35L61.3 35C62.7 31 62.5 26.3 59.4 21.4 58.6 20.1 57.5 19 56.3 18.1 56.7 16 57.6 13.9 58.9 11.8 60.1 10 61.7 8.5 63.5 7.6 64.5 7.1 64.9 5.9 64.4 4.9 63.9 3.9 62.7 3.5 61.7 4 59.2 5.3 57 7.2 55.5 9.6 54 11.9 53.1 14.1 52.6 16.2 49.3 15.1 46.1 15.1 43.2 16 42.7 14 41.7 11.8 40.3 9.6 38.8 7.2 36.6 5.2 34.1 4 33.1 3.5 31.9 3.9 31.4 4.9 30.9 5.9 31.4 7.3 32.4 7.7Z"/><path d="M88.8 66.6 76.8 54.7C76.4 54.4 75.9 54.2 75.3 54.1L67.2 54.1C67 52.5 66.7 50.8 66.3 49.2L74.6 47.5C75.7 47.3 76.6 46.4 76.9 45.4L81.9 27.2C82.3 25.6 81.4 24 79.8 23.5 78.2 23.1 76.6 24 76.1 25.6L71.6 42 64.7 43.4C64.1 41.9 63.5 40.7 62.8 39.9L32.6 39.9C31.9 40.7 31.2 41.9 30.7 43.5L22.5 41.9 18.9 25.7C18.5 24.1 16.9 23.1 15.3 23.4 13.7 23.8 12.7 25.4 13 27L17 45.2C17.3 46.4 18.2 47.3 19.4 47.5L29 49.3C28.7 50.9 28.4 52.5 28.1 54L20.6 54C20.1 54.1 19.6 54.3 19.1 54.6L7.1 66.5C5.8 67.5 5.5 69.4 6.5 70.7 7.5 72 9.4 72.3 10.7 71.3L22.1 60 27.4 60C27.3 60.9 27.3 61.7 27.3 62.3 27.3 63.9 27.5 65.5 27.9 67L20.3 69C19.3 69.2 18.6 69.9 18.2 70.9L11.9 88C11.3 89.6 12.1 91.3 13.7 91.8 14 91.9 14.4 92 14.7 92 15.9 92 17.1 91.2 17.5 90L23.2 74.3 30.1 72.6C33.1 77.7 38.2 81.4 44.3 82.3 45.2 81.6 45.8 80.5 45.8 79.3L45.8 60.1C45.8 59 46.7 58.2 47.7 58.2 48.8 58.2 49.6 59.1 49.6 60.1L49.6 79.4C49.6 80.6 50.2 81.7 51 82.4 57 81.4 62.1 77.7 65.1 72.5L72.6 74.4 78.3 90.1C78.7 91.3 79.9 92.1 81.1 92.1 81.4 92.1 81.8 92 82.1 91.9 83.7 91.3 84.5 89.6 83.9 88.1L77.6 70.9C77.3 70 76.5 69.3 75.5 69L67.3 66.9C67.6 65.4 67.8 63.9 67.8 62.4 67.8 61.7 67.8 60.9 67.7 60.1L73.7 60.1 85 71.5C86.3 72.5 88.2 72.2 89.2 70.9 90.4 69.5 90.1 67.6 88.8 66.6Z"/></g></svg>