<svg viewBox="0 0 96 96" xmlns="http://www.w3.org/2000/svg" xmlns:xlink="http://www.w3.org/1999/xlink" id="Icons_Cut_RTL" overflow="hidden"><path d="M90.3 24.7C87 19.1 79.8 17.2 74.2 20.5 68.6 23.8 66.7 31 70 36.6 70.6 37.6 71.4 38.6 72.3 39.4L59.9 40.9 56.9 42.5 56.3 42.2 26.4 29.7 15 31.2 42.6 45.8 46.7 48 42.6 50.2 15 64.7 26.4 66.1 56.3 53.6 56.9 53.3 59.9 54.9 72.3 56.4C71.4 57.2 70.6 58.2 70 59.2 66.8 64.8 68.7 72 74.3 75.3 79.9 78.5 87.1 76.6 90.4 71 93.6 65.4 91.7 58.2 86.1 54.9 85.3 54.5 84.4 54.1 83.5 53.8L73.4 49.6 69.5 48 73.4 46.4 83.5 42C84.4 41.7 85.3 41.3 86.1 40.9 91.7 37.7 93.7 30.5 90.4 24.8 90.4 24.8 90.4 24.8 90.3 24.7ZM83 59.9C85.8 61.5 86.8 65.1 85.2 67.9 83.6 70.7 80 71.7 77.2 70.1 74.4 68.5 73.4 64.9 75 62.1 76.6 59.3 80.2 58.3 83 59.9ZM60.6 45 60.6 45C62.2 45 63.5 46.3 63.5 47.9 63.5 49.5 62.2 50.8 60.6 50.8 59 50.8 57.7 49.5 57.7 47.9 57.7 46.3 58.9 45 60.6 45ZM77.2 25.7C80 24.1 83.6 25.1 85.2 27.9 86.8 30.7 85.8 34.3 83 35.9 80.2 37.5 76.6 36.5 75 33.7 75 33.7 75 33.7 75 33.7 73.4 30.9 74.4 27.3 77.2 25.7 77.2 25.7 77.2 25.7 77.2 25.7Z"/><rect x="4" y="46" width="8" height="4"/><rect x="16" y="46" width="8" height="4"/><rect x="28" y="46" width="8" height="4"/></svg>