<svg viewBox="0 0 96 96" xmlns="http://www.w3.org/2000/svg" xmlns:xlink="http://www.w3.org/1999/xlink" id="Icons_Keyboard" overflow="hidden"><path d="M90.006 28 6.006 28C3.79686 28 2.006 29.7909 2.006 32L2.006 64C2.006 66.2091 3.79686 68 6.006 68L90.006 68C92.2151 68 94.006 66.2091 94.006 64L94.006 32C94.006 29.7909 92.2151 28 90.006 28ZM50.006 35 56.006 35 56.006 41 50.006 41ZM50.006 45 56.006 45 56.006 51 50.006 51ZM40.006 35 46.006 35 46.006 41 40.006 41ZM40.006 45 46.006 45 46.006 51 40.006 51ZM30.006 35 36.006 35 36.006 41 30.006 41ZM30.006 45 36.006 45 36.006 51 30.006 51ZM16.006 61 10.006 61 10.006 55 16.006 55ZM16.006 51 10.006 51 10.006 45 16.006 45ZM16.006 41 10.006 41 10.006 35 16.006 35ZM26.006 61 20.006 61 20.006 55 26.006 55ZM26.006 51 20.006 51 20.006 45 26.006 45ZM26.006 41 20.006 41 20.006 35 26.006 35ZM66.006 61 30.006 61 30.006 55 66.006 55ZM66.006 51 60.006 51 60.006 45 66.006 45ZM66.006 41 60.006 41 60.006 35 66.006 35ZM76.006 61 70.006 61 70.006 55 76.006 55ZM76.006 51 70.006 51 70.006 45 76.006 45ZM76.006 41 70.006 41 70.006 35 76.006 35ZM86.006 61 80.006 61 80.006 55 86.006 55ZM86.006 51 80.006 51 80.006 45 86.006 45ZM86.006 41 80.006 41 80.006 35 86.006 35Z"/></svg>