<svg viewBox="0 0 96 96" xmlns="http://www.w3.org/2000/svg" xmlns:xlink="http://www.w3.org/1999/xlink" id="Icons_Paint" overflow="hidden"><path d="M76.1 43C76.1 44.7 74.8 46 73.1 46 71.4 46 70.1 44.7 70.1 43L70.1 32C70.1 33.7 68.8 35 67.1 35 65.4 35 64.1 33.7 64.1 32L64.1 26C64.1 27.7 62.8 29 61.1 29 59.4 29 58.1 27.7 58.1 26L58.1 21.9C56.5 22 54.9 22 53.1 22 40.7 22 32.8 19.7 30.1 18 32.8 16.3 40.7 14 53.1 14 65.5 14 73.4 16.3 76.1 18L76.1 43ZM18.7 53C17.9 52.2 19 47.2 25.1 39.2L25.1 51.4C21.6 53.2 19.3 53.6 18.7 53ZM53.1 10C37.6 10 25.1 13.6 25.1 18L25.1 32.8C24.6 33.4 24.1 34 23.5 34.7 19.7 39.5 11.2 51.1 15.9 55.8 16.8 56.7 18.1 57.2 19.6 57.2 25.5 57.2 35.2 50.5 43.2 42.6 43.8 42.8 44.4 43 45.1 43 47.9 43 50.1 40.8 50.1 38 50.1 35.2 47.9 33 45.1 33 42.3 33 40.1 35.2 40.1 38 40.1 38.6 40.2 39.2 40.4 39.7 39.4 40.7 38.3 41.7 37.3 42.5 36.5 41.2 36 39.6 36 37.9 36 32.9 40 28.9 45 28.9 50 28.9 54 32.9 54 37.9 54 42.9 50 46.9 45 46.9 44.8 46.9 44.5 46.9 44.3 46.9 39.9 51 32.2 57.5 25 60L25 78C25 82.4 37.6 86 53 86 68.4 86 81 82.4 81 78L81 18C81.1 13.6 68.6 10 53.1 10Z" fill="#ED7D31"/></svg>