<svg viewBox="0 0 96 96" xmlns="http://www.w3.org/2000/svg" xmlns:xlink="http://www.w3.org/1999/xlink" id="Icons_DeciduousTree" overflow="hidden"><path d="M81.8 32.8C80.6 28.8 78 25.4 74.4 23.3 74.4 23 74.4 22.7 74.4 22.4 74.5 15.6 68.9 10 62 10 59.9 10 58 10.5 56.3 11.4 54 8.1 50.3 6 46 6 40.5 6 35.8 9.6 34.1 14.6 32.3 13.6 30.2 13 28 13 21.1 13 15.5 18.6 15.5 25.5 15.5 28.1 16.3 30.5 17.7 32.5 11.2 34.2 6.5 40 6.5 47 6.5 55.3 13.2 62 21.5 62 22.7 62 23.9 61.8 25.1 61.6 29.9 63.8 40.5 70.2 41 77.5L40.6 87C40.6 87.5 40.4 88 40 88.4L39.1 89.3C38.5 90 38.9 91 39.8 91L50.8 91C51.6 91 52 90.2 51.7 89.5 51.7 89.5 51.2 88.5 50.9 88.2 50.6 87.8 50.3 87.4 50.3 86.8L49.9 74.7C49.9 74.6 50 74.5 50 74.5 50.8 70.9 55.6 68.5 60.7 66 65.8 63.5 71.8 60.5 73.7 55.3 74.9 55.7 76.2 56 77.6 56 84.2 56 89.6 50.6 89.6 44 89.5 38.9 86.3 34.5 81.8 32.8ZM45.8 63.3C45.5 60.8 44.9 57.8 43.7 54.9 46.2 54.6 48.5 53.8 50.5 52.6 48.4 56.2 46.8 60.1 45.8 63.3ZM30.7 58.8C32.5 57.4 34 55.5 35.1 53.4 36 53.8 36.9 54.2 37.9 54.4 40.5 58.7 41 63.6 41 66.7 37.8 63.3 33.7 60.6 30.7 58.8ZM58.4 61.5C55.5 62.9 52.5 64.4 50.1 66.2 51.4 62.1 53.7 55.9 57.3 51.4 59.8 53 62.8 53.9 66 53.9 67 53.9 67.9 53.8 68.8 53.6 67.7 56.7 63.8 58.8 58.4 61.5Z"/></svg>