<svg viewBox="0 0 96 96" xmlns="http://www.w3.org/2000/svg" xmlns:xlink="http://www.w3.org/1999/xlink" id="Icons_World" overflow="hidden"><path d="M53.5 79.5C60 71.5 67.2 61.4 67.9 50L79.9 50C79 64.9 67.9 77 53.5 79.5ZM16.1 50 28.1 50C28.9 61.4 36 71.5 42.5 79.5 28.1 77 17 64.9 16.1 50ZM42.5 16.5C36 24.5 28.8 34.6 28.1 46L16.1 46C17 31.1 28.1 19 42.5 16.5ZM50 50 63.9 50C63.1 60.3 56.4 69.6 50 77.5L50 50ZM46 50 46 77.5C39.6 69.6 32.9 60.3 32.1 50L46 50ZM50 18.5C56.4 26.4 63.1 35.6 63.9 46L50 46 50 18.5ZM46 46 32.1 46C32.9 35.7 39.6 26.4 46 18.5L46 46ZM79.9 46 67.9 46C67.2 34.6 60 24.5 53.5 16.5 67.9 19 79 31.1 79.9 46ZM48 10C27 10 10 27 10 48 10 69 27 86 48 86 69 86 86 69 86 48 86 27 69 10 48 10Z"/></svg>