<?xml version="1.0" encoding="UTF-8" standalone="no"?>
<!-- Created with Inkscape (http://www.inkscape.org/) -->

<svg
   width="1200"
   height="630"
   viewBox="0 0 317.49996 166.68748"
   version="1.1"
   id="svg5"
   xml:space="preserve"
   inkscape:version="1.2.1 (9c6d41e410, 2022-07-14)"
   sodipodi:docname="share-image.svg"
   xmlns:inkscape="http://www.inkscape.org/namespaces/inkscape"
   xmlns:sodipodi="http://sodipodi.sourceforge.net/DTD/sodipodi-0.dtd"
   xmlns="http://www.w3.org/2000/svg"
   xmlns:svg="http://www.w3.org/2000/svg"><sodipodi:namedview
     id="namedview7"
     pagecolor="#ffffff"
     bordercolor="#000000"
     borderopacity="0.25"
     inkscape:showpageshadow="2"
     inkscape:pageopacity="0.0"
     inkscape:pagecheckerboard="0"
     inkscape:deskcolor="#d1d1d1"
     inkscape:document-units="mm"
     showgrid="false"
     inkscape:zoom="0.84096521"
     inkscape:cx="632.60643"
     inkscape:cy="499.42613"
     inkscape:window-width="2160"
     inkscape:window-height="1346"
     inkscape:window-x="-11"
     inkscape:window-y="-11"
     inkscape:window-maximized="1"
     inkscape:current-layer="layer1" /><defs
     id="defs2" /><g
     inkscape:label="Layer 1"
     inkscape:groupmode="layer"
     id="layer1"><rect
       style="opacity:0.96;fill:#232323;fill-opacity:1;stroke-width:1.12166;stroke-miterlimit:0;paint-order:markers fill stroke"
       id="rect458"
       width="317.5"
       height="166.6875"
       x="-1.4210855e-14"
       y="1.4210855e-14" /><g
       id="layer2"
       inkscape:label="Logo Trait"
       transform="matrix(0.80771725,0,0,0.80771725,37.803341,29.349744)"><g
         id="g4790"
         inkscape:label="toque"
         style="fill:#39acff;fill-opacity:1;stroke-width:3"><path
           style="color:#000000;fill:#39acff;fill-opacity:1;stroke-linecap:round;stroke-linejoin:round;-inkscape-stroke:none"
           d="M 29.564453,3.7441406 C 28.175822,3.8141136 26.899998,4.2743727 25.902344,4.8476562 24.729297,5.5217261 23.933491,6.2415018 23.378906,6.8085937 21.922345,6.126765 18.224878,4.6639759 13.695313,7.3769531 9.4747712,9.9048411 9.0000555,14.587387 9.0371094,16.929687 8.530112,17.048586 8.0208409,17.141144 7.4335937,17.466797 5.7928196,18.376675 4.1195658,20.409088 3.796875,23.84375 c -0.174617,1.858593 0.3603296,3.470373 1.2734375,4.623047 0.9131079,1.152673 2.1228567,1.860059 3.2753906,2.326172 1.7146339,0.69344 3.0923879,0.838758 3.8496099,0.890625 l 14.470703,17.425781 a 1.50015,1.50015 0 0 0 2.009765,0.273437 l 18.59961,-12.921875 a 1.50015,1.50015 0 0 0 0.4375,-1.992187 L 36.572266,15.466797 C 36.837979,14.774621 37.176792,13.731658 37.28125,12.240234 37.439553,9.9800304 36.779672,6.9360343 33.904297,4.9804687 32.453331,3.9936557 30.953084,3.6741677 29.564453,3.7441406 Z m 0.06641,2.921875 c 0.791327,-0.055277 1.642772,0.1521392 2.587891,0.7949219 1.916793,1.3036258 2.183609,2.9527025 2.070312,4.5703125 -0.113296,1.61761 -0.726562,2.925781 -0.726562,2.925781 a 1.50015,1.50015 0 0 0 0.05859,1.408203 L 44.421875,34.789062 28.091797,46.132812 14.109375,29.291016 A 1.50015,1.50015 0 0 0 12.986328,28.75 c 0,0 -1.844855,-0.06258 -3.5156249,-0.738281 C 8.6353183,27.673868 7.8922718,27.197327 7.421875,26.603516 6.9514782,26.009704 6.6713286,25.31382 6.7832031,24.123047 c 0.2502922,-2.664064 1.2343578,-3.550136 2.1054688,-4.033203 0.8711109,-0.483068 1.6289061,-0.44336 1.6289061,-0.44336 a 1.50015,1.50015 0 0 0 1.56836,-1.71289 c 0,0 -0.72658,-5.659146 3.152343,-7.9824221 4.102346,-2.4570945 7.81836,-0.1484375 7.81836,-0.1484375 a 1.50015,1.50015 0 0 0 1.947265,-0.3476563 c 0,0 0.970749,-1.1888308 2.392578,-2.0058594 0.710915,-0.4085142 1.443049,-0.727926 2.234375,-0.7832031 z"
           id="path2032" /><path
           style="color:#000000;fill:#39acff;fill-opacity:1;stroke-linecap:round;stroke-linejoin:round;-inkscape-stroke:none"
           d="M 41.398437,27.933594 22.673828,40.970703 a 1.5,1.5 0 0 0 -0.373047,2.087891 1.5,1.5 0 0 0 2.087891,0.373047 l 18.724609,-13.03711 a 1.5,1.5 0 0 0 0.373047,-2.08789 1.5,1.5 0 0 0 -2.087891,-0.373047 z"
           id="path2034" /><path
           style="color:#000000;fill:#39acff;fill-opacity:1;stroke-linecap:round;stroke-linejoin:round;-inkscape-stroke:none"
           d="m 22.335937,28.685547 a 1.5,1.5 0 0 0 -1.117187,0.259765 1.5,1.5 0 0 0 -0.347656,2.091797 l 6.015625,8.414063 a 1.5,1.5 0 0 0 2.09375,0.347656 1.5,1.5 0 0 0 0.347656,-2.09375 l -6.017578,-8.412109 a 1.5,1.5 0 0 0 -0.97461,-0.607422 z"
           id="path2036" /><path
           style="color:#000000;fill:#39acff;fill-opacity:1;stroke-linecap:round;stroke-linejoin:round;-inkscape-stroke:none"
           d="m 31.724609,22.242187 a 1.5,1.5 0 0 0 -1.117187,0.259766 1.5,1.5 0 0 0 -0.347656,2.091797 l 6.015625,8.414062 a 1.5,1.5 0 0 0 2.09375,0.347657 1.5,1.5 0 0 0 0.347656,-2.091797 l -6.017578,-8.414063 a 1.5,1.5 0 0 0 -0.97461,-0.607422 z"
           id="path2036-9" /><path
           style="color:#000000;fill:#39acff;fill-opacity:1;stroke-linecap:round;stroke-linejoin:round;-inkscape-stroke:none"
           d="m 25.255859,22.546875 a 1.5,1.5 0 0 0 -1.125,0.228516 1.5,1.5 0 0 0 -0.40625,2.082031 l 7.865235,11.662109 a 1.5,1.5 0 0 0 2.082031,0.404297 1.5,1.5 0 0 0 0.40625,-2.082031 l -7.865234,-11.66211 a 1.5,1.5 0 0 0 -0.957032,-0.632812 z"
           id="path2038" /></g><g
         id="g4821"
         inkscape:label="Sidonie"
         style="stroke-width:6;stroke-dasharray:none"><path
           style="color:#000000;fill:#39acff;fill-opacity:1;stroke-linecap:round;stroke-linejoin:round;-inkscape-stroke:none"
           d="m 61.203125,37.337891 c -24.186761,4.819825 -30.958152,16.792372 -31.992188,22.55664 -0.426295,2.376395 -0.663194,5.389097 0.353516,8.416016 1.016711,3.026919 3.662683,5.954693 7.759766,7.035156 4.279782,1.128644 9.373432,0.447243 14.21875,0.251953 4.845318,-0.19529 8.353448,-0.483404 11.223229,1.766161 2.869781,2.249564 4.557509,6.533838 2.849036,11.952589 C 64.082728,94.177047 57.504941,102.00673 45.9375,101.44336 40.475765,101.17735 37.224523,98.411672 35,95.044922 c -2.224523,-3.36675 -3.064348,-7.603883 -3.052734,-8.6875 0.01735,-1.656136 -1.310671,-3.01301 -2.966797,-3.03125 -1.656895,-0.01844 -3.014967,1.3099 -3.033203,2.966797 -0.03275,3.056151 1.075255,7.561136 4.046875,12.058593 2.971619,4.497458 8.166367,8.719388 15.652343,9.083988 14.32798,0.69782 23.275739,-8.652696 25.691407,-16.314456 2.239702,-7.10365 0.367338,-14.192449 -5.666016,-18.921875 C 61.683544,69.072845 56.384579,69.398692 51.302734,69.603516 46.22089,69.808339 41.074277,70.128617 38.853516,69.542969 36.450055,68.90914 35.759651,67.911893 35.251953,66.400391 34.744255,64.888888 34.795324,62.749314 35.117187,60.955078 35.579467,58.378085 39.83883,47.71356 62.375,43.222656 c 1.625943,-0.32305 2.68168,-1.903595 2.357422,-3.529297 -0.323971,-1.625148 -1.904224,-2.679816 -3.529297,-2.355468 z"
           id="path1959"
           sodipodi:nodetypes="csssszssscccssssssssccc" /><g
           id="g4804"
           inkscape:label="i gauche"
           transform="matrix(0.97755193,0,0,0.99501706,1.7605477,0.54500979)"
           style="fill:#39acff;fill-opacity:1;stroke-width:6.08368"><path
             style="color:#000000;fill:#39acff;fill-opacity:1;stroke-linecap:round;stroke-linejoin:round;-inkscape-stroke:none"
             d="m 82.546875,66.253906 a 3.0418379,3.0418379 0 0 0 -3.617188,2.330078 c -0.299601,1.384565 -0.45479,3.34427 -0.609375,6.207032 -0.154584,2.862761 -0.246064,6.417151 -0.185546,10.158203 0.121036,7.482102 0.629329,15.490741 3.140625,20.873051 a 3.0418379,3.0418379 0 0 0 4.042968,1.46875 3.0418379,3.0418379 0 0 0 1.470703,-4.04102 c -1.534283,-3.288334 -2.456485,-11.241257 -2.572265,-18.398438 -0.05789,-3.57859 0.03085,-7.012272 0.177734,-9.732421 0.146884,-2.72015 0.413601,-4.939027 0.480469,-5.248047 a 3.0418379,3.0418379 0 0 0 -2.328125,-3.617188 z"
             id="path1961" /><path
             id="path2094-4"
             style="fill:#39acff;fill-opacity:1;stroke-linecap:round;stroke-linejoin:round"
             inkscape:label="point gauche"
             d="m 85.036177,54.848713 a 3.524893,3.524893 0 0 1 -3.524893,3.524893 3.524893,3.524893 0 0 1 -3.524893,-3.524893 3.524893,3.524893 0 0 1 3.524893,-3.524893 3.524893,3.524893 0 0 1 3.524893,3.524893 z" /></g><path
           style="color:#000000;fill:#39acff;fill-opacity:1;stroke-linecap:round;stroke-linejoin:round;-inkscape-stroke:none"
           d="m 125.57617,33.603516 a 3,3 0 0 0 -3.51562,2.375 c -1.3229,6.830687 -2.76092,18.791467 -4.68164,30.708984 -0.92717,0.232413 -1.91802,0.476644 -3.18555,1.007812 -3.21463,1.347114 -7.45178,3.870709 -11.76172,8.480469 -4.576963,4.895354 -7.932749,12.140505 -8.537109,18.697266 -0.30218,3.27838 0.06707,6.558763 2.082031,9.142583 2.014959,2.58381 5.626788,3.76502 9.656248,3.21484 2.56898,-0.35077 4.72866,-1.83986 6.41992,-3.75977 1.69127,-1.9199 3.03826,-4.324005 4.23633,-7.089841 0.527,-1.216607 0.92281,-2.734105 1.39258,-4.083984 1.23736,5.349276 3.46758,10.599015 7.91797,14.332035 a 3,3 0 0 0 4.22656,-0.3711 3,3 0 0 0 -0.37109,-4.22656 c -4.84319,-4.062493 -6.75596,-12.004891 -7.11914,-19.181641 -0.36318,-7.176749 0.67968,-13.191406 0.67969,-13.191406 a 3.0003,3.0003 0 0 0 -0.0137,-0.111328 c 2.15687,-12.845647 3.6794,-25.871107 4.94922,-32.427734 a 3,3 0 0 0 -2.375,-3.515625 z m -9.25,39.728515 c -0.11807,0.632601 -0.17803,1.268063 -0.30078,1.894531 -1.41648,7.22916 -3.16326,13.970185 -5.24219,18.769532 -1.03946,2.399673 -2.16922,4.300612 -3.23437,5.509765 -1.06516,1.209151 -1.94112,1.672051 -2.72656,1.779301 -2.67937,0.36583 -3.50208,-0.17523 -4.11329,-0.95899 -0.6112,-0.783759 -1.059717,-2.516864 -0.839839,-4.902342 0.439759,-4.770955 3.491939,-11.456783 6.945309,-15.150391 3.64157,-3.894894 7.02701,-5.876406 9.51172,-6.941406 z"
           id="path1965" /><path
           style="color:#000000;fill:#39acff;fill-opacity:1;stroke-linecap:round;stroke-linejoin:round;-inkscape-stroke:none"
           d="m 150.94922,66.572266 c -4.53037,-0.387636 -8.20967,2.36501 -10.75195,5.55664 -2.54229,3.191631 -4.27136,7.047013 -5.26368,10.416016 -1.02579,3.482634 -1.35061,7.456911 -1.01367,11.208984 0.33694,3.752073 1.21842,7.311534 3.53516,9.939454 2.05497,2.33099 4.96645,3.89673 8.19531,3.98828 3.22886,0.0915 6.61008,-1.371 9.35547,-4.30273 5.22499,-5.579632 6.68783,-12.679199 6.96094,-19.642582 0.14461,-3.68706 -0.33629,-7.494706 -1.97461,-10.771484 -1.63833,-3.276778 -4.8273,-6.031873 -9.04297,-6.392578 z m -0.51172,5.978515 c 2.12873,0.182141 3.20873,1.140038 4.1875,3.097656 0.97877,1.957619 1.46322,4.905063 1.34766,7.851563 -0.24724,6.303735 -1.46352,11.629575 -5.34766,15.777344 -1.80919,1.931986 -3.40569,2.445916 -4.80469,2.406246 -1.39899,-0.0397 -2.76652,-0.71295 -3.86328,-1.957028 -0.835,-0.94716 -1.79344,-3.51359 -2.0625,-6.509765 -0.26906,-2.996175 0.0335,-6.393425 0.79492,-8.978516 0.79489,-2.69872 2.33552,-6.028916 4.20117,-8.371094 1.86566,-2.342177 3.73286,-3.47162 5.54688,-3.316406 z"
           id="path1967" /><path
           style="color:#000000;fill:#39acff;fill-opacity:1;stroke-linecap:round;stroke-linejoin:round"
           d="m 181.99805,66.449219 c -1.86915,-0.158425 -3.87648,0.172427 -5.83008,1.068359 -1.70133,0.780238 -3.76457,3.636322 -3.76457,3.636322 0,0 -0.85433,-2.689104 -3.21199,-2.024994 -1.93884,0.546136 -1.75615,2.228627 -1.80083,3.980469 -0.0236,0.924304 -0.0607,2.29466 -0.10742,3.951172 -0.0934,3.313023 -0.22467,7.770708 -0.35937,12.117187 -0.11993,3.869482 -0.20972,7.38731 -0.33985,10.1875 -0.0824,1.772106 -0.25572,3.783186 -0.24414,4.681646 0.002,0.16076 0.003,0.27362 0.0137,0.44531 0.005,0.0858 -0.0185,0.1068 0.0684,0.50781 0.0217,0.10025 0.0228,0.23534 0.14844,0.48438 1.09015,2.16088 4.54303,1.84252 5.61133,-0.0879 0.24137,-0.43615 0.19061,-0.91584 0.21872,-1.35546 0.0419,-0.65545 0.0846,-1.74871 0.13867,-3.19336 0.008,-0.22357 0.0147,-0.64977 0.0293,-0.888676 0.20641,-3.387976 0.59422,-7.923787 1.42969,-12.941406 0.60977,-3.662136 1.41685,-7.250859 2.36718,-9.917969 0.8115,-3.243634 3.9941,-6.206689 7.01368,-3.998047 1.05942,0.80204 1.80279,2.303312 1.68554,4.136719 -0.18217,2.848698 -0.37233,7.874044 -0.0449,13.212891 0.32741,5.338846 1.07269,10.943338 3.26953,15.306638 0.74476,1.47921 2.54792,2.07439 4.02735,1.33008 1.47973,-0.74445 2.07652,-2.54763 1.33203,-4.02734 -1.44838,-2.87872 -2.3343,-8.013295 -2.63867,-12.976566 -0.30438,-4.96327 -0.12704,-9.804405 0.043,-12.46289 0.23495,-3.673779 -1.24959,-7.18257 -4.05273,-9.304688 -1.40157,-1.061059 -3.13281,-1.708762 -5.00195,-1.867187 -2e-5,-2e-6 -4e-5,2e-6 -6e-5,0 z"
           id="path1969"
           sodipodi:nodetypes="sscssssssssssssssccssssssssss" /><g
           id="g4796"
           inkscape:label="e prise"
           transform="matrix(1.0090068,0,0,1.0090068,-1.893527,-0.96580852)"
           style="fill:#39acff;fill-opacity:1;stroke-width:5.94644"><path
             style="color:#000000;fill:#39acff;fill-opacity:1;stroke-linecap:round;stroke-linejoin:round;-inkscape-stroke:none"
             d="m 222.24219,66.876953 c -0.5904,-0.02774 -1.21275,0.03879 -1.87305,0.228516 -2.03914,0.585914 -2.75272,2.058051 -3.30859,3.335937 -0.55588,1.277886 -0.91184,2.715726 -1.18946,4.351563 -0.42407,2.498802 -0.55296,5.49589 -0.52343,8.599609 -0.45443,-0.0075 -2.19922,0.02344 -2.19922,0.02344 a 2.9732208,2.9732208 0 0 0 -3.05274,2.892578 2.9732208,2.9732208 0 0 0 2.89258,3.052734 c 0,0 2.07273,-0.03889 2.71289,-0.0293 0.3337,3.126491 0.83958,6.223078 1.77344,8.970703 1.24099,3.651277 3.05696,7.006797 6.54687,8.460937 3.75801,1.56584 7.49486,-0.13238 10.95313,-2.35156 3.45827,-2.21918 6.9228,-5.358025 10.10351,-8.578127 C 251.43955,89.39378 256.625,82.560546 256.625,82.560546 a 2.9732208,2.9732208 0 0 0 -0.56836,-4.166016 2.9732208,2.9732208 0 0 0 -4.16602,0.56836 c 0,0 -5.02583,6.601717 -11.04296,12.693359 -3.00857,3.045821 -6.27646,5.947151 -9.08594,7.75 -2.80948,1.802851 -4.87568,2.109741 -5.45313,1.869141 -0.84553,-0.35231 -2.22532,-2.004051 -3.20507,-4.886719 -0.68508,-2.015655 -1.11842,-4.526806 -1.43165,-7.117188 0.51737,-0.01703 0.50076,0.01286 1.0293,-0.01172 2.49373,-0.115945 5.05171,-0.314897 7.24805,-0.703125 1.09817,-0.194115 2.10121,-0.427415 3.05469,-0.794922 0.95347,-0.367508 2.01845,-0.762758 2.84179,-2.203125 0.74826,-1.309 0.641,-2.496188 0.45899,-3.480469 -0.18202,-0.984281 -0.52439,-1.889152 -0.95899,-2.818359 -0.86919,-1.858414 -2.1381,-3.790292 -3.61133,-5.615235 -1.47322,-1.824942 -3.12845,-3.520521 -4.90625,-4.798828 -1.33334,-0.95873 -2.81474,-1.885543 -4.58593,-1.96875 z m 0.17578,6.304688 c 0.26483,0.108522 0.52602,0.196319 0.9375,0.492187 1.1346,0.815825 2.53614,2.199005 3.75195,3.705078 1.21581,1.506073 2.27025,3.157475 2.85156,4.400391 0.12784,0.273323 0.13933,0.387927 0.21875,0.607422 -0.38093,0.107255 -0.69996,0.214812 -1.26367,0.314453 -1.74093,0.307731 -4.13389,0.509675 -6.48828,0.61914 -0.57695,0.02683 -0.57214,-0.0057 -1.13672,0.01172 -0.022,-2.810074 0.10031,-5.51202 0.44531,-7.544922 0.19812,-1.1674 0.45598,-2.001521 0.6836,-2.605469 z"
             id="path2002" /><path
             style="color:#000000;fill:#39acff;fill-opacity:1;stroke-linecap:round;stroke-linejoin:round;-inkscape-stroke:none"
             d="m 261.10352,45.894531 c 0,0 -3.24133,2.113008 -5.97657,6.371094 -2.58532,4.024706 -4.7676,10.229106 -4.13476,18.417969 -1.50602,1.864966 -3.35157,4.130859 -3.35157,4.130859 a 2.9735181,2.9735181 0 0 0 0.38477,4.15625 l 9.11914,7.689453 a 2.9735181,2.9735181 0 0 0 4.13281,-0.291015 c 0,0 1.97119,-2.234929 3.33399,-3.830079 15.60634,0.01131 23.57226,-12.826171 23.57226,-12.826171 a 2.9735181,2.9735181 0 0 0 -0.60742,-3.779297 L 264.65234,46.144531 a 2.9735181,2.9735181 0 0 0 -3.54882,-0.25 z m 1.60742,6.431641 18.8789,16.296875 c -2.53922,3.068628 -8.46661,8.629517 -18.21875,8.054687 a 2.9735181,2.9735181 0 0 0 -2.51757,1.136719 c -0.19421,0.248477 -1.11097,1.279444 -2.10938,2.416016 l -4.65625,-3.925782 c 0.83182,-1.022007 1.29427,-1.58206 2.2168,-2.732421 a 2.9735181,2.9735181 0 0 0 0.63281,-2.203125 c -0.87991,-7.568467 1.08533,-12.611988 3.19141,-15.890625 0.94317,-1.468286 1.83391,-2.416221 2.58203,-3.152344 z"
             id="path2004" /><path
             style="color:#000000;fill:#39acff;fill-opacity:1;stroke-linecap:round;stroke-linejoin:round;-inkscape-stroke:none"
             d="m 279.10742,36.197266 a 2.9732208,2.9732208 0 0 0 -2.04101,1.005859 l -11.36914,12.949219 a 2.9732208,2.9732208 0 0 0 0.27343,4.195312 2.9732208,2.9732208 0 0 0 4.19532,-0.271484 L 281.53516,41.125 a 2.9732208,2.9732208 0 0 0 -0.27344,-4.195313 2.9732208,2.9732208 0 0 0 -2.1543,-0.732421 z"
             id="path2008" /><path
             style="color:#000000;fill:#39acff;fill-opacity:1;stroke-linecap:round;stroke-linejoin:round;-inkscape-stroke:none"
             d="m 293.94336,47.580078 a 2.9732208,2.9732208 0 0 0 -4.19531,0.265625 c -5.62487,6.38498 -8.46955,9.62312 -9.91016,11.269531 -0.7203,0.823206 -1.08835,1.247148 -1.2832,1.472657 -0.0974,0.112754 -0.15147,0.175764 -0.18946,0.220703 -0.038,0.04494 -0.23046,0.302734 -0.23046,0.302734 a 2.9732208,2.9732208 0 0 0 0.82617,4.123047 2.9732208,2.9732208 0 0 0 4.12304,-0.824219 c 0,0 -0.18838,0.251237 -0.17578,0.236328 0.0126,-0.01491 0.0568,-0.06609 0.14649,-0.169922 0.17943,-0.20767 0.54374,-0.626995 1.25976,-1.445312 1.43206,-1.636634 4.27193,-4.873443 9.89453,-11.255859 a 2.9732208,2.9732208 0 0 0 -0.26562,-4.195313 z"
             id="path2008-3" /></g><g
           id="g4800"
           inkscape:label="i droite"
           style="fill:#39acff;fill-opacity:1"><path
             style="color:#000000;fill:#39acff;fill-opacity:1;stroke-linecap:round;stroke-linejoin:round;-inkscape-stroke:none"
             d="m 202.00977,66.472656 a 3,3 0 0 0 -3.56641,2.296875 c -0.29646,1.370029 -0.45479,3.320327 -0.60938,6.160156 -0.15459,2.83983 -0.24606,6.365517 -0.18554,10.076172 0.12104,7.421311 0.63661,15.376061 3.13672,20.734371 a 3,3 0 0 0 3.98828,1.45118 3,3 0 0 0 1.44922,-3.98633 c -1.54548,-3.312317 -2.4604,-11.19861 -2.57618,-18.296877 -0.0579,-3.549133 0.0309,-6.954151 0.17774,-9.652344 0.14688,-2.698192 0.41241,-4.893238 0.48242,-5.216797 a 3,3 0 0 0 -2.29687,-3.566406 z"
             id="path1961-5" /><path
             id="path2094-4-1"
             style="fill:#39acff;fill-opacity:1;stroke-linecap:round;stroke-linejoin:round"
             inkscape:label="point droit"
             d="m 205.98263,55.190815 a 3.524893,3.524893 0 0 1 -3.5249,3.524893 3.524893,3.524893 0 0 1 -3.52489,-3.524893 3.524893,3.524893 0 0 1 3.52489,-3.524893 3.524893,3.524893 0 0 1 3.5249,3.524893 z" /></g></g></g><text
       xml:space="preserve"
       style="font-weight:900;font-size:16.9333px;font-family:Satoshi;-inkscape-font-specification:'Satoshi Heavy';opacity:0.96;fill:#232323;fill-opacity:1;stroke-width:3.175;stroke-miterlimit:0;paint-order:markers fill stroke"
       x="60.051006"
       y="138.41809"
       id="text1146"><tspan
         sodipodi:role="line"
         id="tspan1144"
         style="font-style:normal;font-variant:normal;font-weight:bold;font-stretch:normal;font-size:16.9333px;font-family:Satoshi;-inkscape-font-specification:'Satoshi Bold';fill:#a3b0c0;fill-opacity:1;stroke-width:3.175"
         x="60.051006"
         y="138.41809">Cooking &amp; Programming</tspan></text></g></svg>
