<?xml version="1.0" encoding="UTF-8" standalone="no"?>
<svg
   xmlns:dc="http://purl.org/dc/elements/1.1/"
   xmlns:cc="http://creativecommons.org/ns#"
   xmlns:rdf="http://www.w3.org/1999/02/22-rdf-syntax-ns#"
   xmlns:svg="http://www.w3.org/2000/svg"
   xmlns="http://www.w3.org/2000/svg"
   xmlns:sodipodi="http://sodipodi.sourceforge.net/DTD/sodipodi-0.dtd"
   xmlns:inkscape="http://www.inkscape.org/namespaces/inkscape"
   id="Layer_1"
   data-name="Layer 1"
   viewBox="0 0 611.86737 272.96155"
   version="1.1"
   sodipodi:docname="clic_color_info.svg"
   width="611.86737"
   height="272.96155"
   inkscape:version="0.92.4 (5da689c313, 2019-01-14)">
  <metadata
     id="metadata137">
    <rdf:RDF>
      <cc:Work
         rdf:about="">
        <dc:format>image/svg+xml</dc:format>
        <dc:type
           rdf:resource="http://purl.org/dc/dcmitype/StillImage" />
      </cc:Work>
    </rdf:RDF>
  </metadata>
  <sodipodi:namedview
     pagecolor="#ffffff"
     bordercolor="#666666"
     borderopacity="1"
     objecttolerance="10"
     gridtolerance="10"
     guidetolerance="10"
     inkscape:pageopacity="0"
     inkscape:pageshadow="2"
     inkscape:window-width="846"
     inkscape:window-height="480"
     id="namedview135"
     showgrid="false"
     inkscape:zoom="0.33"
     inkscape:cx="305.82645"
     inkscape:cy="136"
     inkscape:window-x="0"
     inkscape:window-y="27"
     inkscape:window-maximized="0"
     inkscape:current-layer="Layer_1" />
  <defs
     id="defs4">
    <style
       id="style2">.cls-1{fill:#c7371b;}.cls-2{fill:#273184;}</style>
  </defs>
  <title
     id="title6">clic_color_info</title>
  <path
     class="cls-1"
     d="m 6.8764485,269.54156 h -4.53 v -18.84 h 4.53 z"
     id="path8"
     inkscape:connector-curvature="0"
     style="fill:#c7371b" />
  <path
     class="cls-1"
     d="m 30.276448,269.54156 h -4.52 l -6.68,-11.72 v 11.72 h -4.54 v -18.84 h 4.54 l 6.67,11.72 v -11.72 h 4.53 z"
     id="path10"
     inkscape:connector-curvature="0"
     style="fill:#c7371b" />
  <path
     class="cls-1"
     d="m 49.526448,262.03156 h -7.32 v 7.51 h -4.55 v -18.84 h 12.61 v 3.5 h -8.06 v 4.34 h 7.32 z"
     id="path12"
     inkscape:connector-curvature="0"
     style="fill:#c7371b" />
  <path
     class="cls-1"
     d="m 72.626448,260.51156 a 11.18,11.18 0 0 1 -1,4.88 7.73,7.73 0 0 1 -2.91,3.27 8.14,8.14 0 0 1 -4.29,1.14 8.25,8.25 0 0 1 -4.27,-1.1 7.52,7.52 0 0 1 -2.91,-3.17 10.8,10.8 0 0 1 -1.09,-4.73 v -1.06 a 11.26,11.26 0 0 1 1,-4.88 7.56,7.56 0 0 1 2.92,-3.27 8.63,8.63 0 0 1 8.59,0 7.64,7.64 0 0 1 2.91,3.24 10.78,10.78 0 0 1 1.06,4.82 z m -4.62,-0.79 a 7.91,7.91 0 0 0 -0.94,-4.27 3,3 0 0 0 -2.69,-1.45 q -3.42,0 -3.61,5.12 v 1.39 a 8.1,8.1 0 0 0 0.92,4.26 3,3 0 0 0 2.73,1.49 3,3 0 0 0 2.65,-1.47 8,8 0 0 0 0.95,-4.21 z"
     id="path14"
     inkscape:connector-curvature="0"
     style="fill:#c7371b" />
  <path
     class="cls-1"
     d="m 86.476448,262.88156 h -2.46 v 6.66 h -4.54 v -18.84 h 7.42 a 8.29,8.29 0 0 1 5.24,1.48 5,5 0 0 1 1.89,4.2 6.1,6.1 0 0 1 -0.8,3.26 5.64,5.64 0 0 1 -2.49,2.1 l 3.94,7.61 v 0.19 h -4.85 z m -2.46,-3.5 h 2.88 a 2.61,2.61 0 0 0 1.95,-0.68 3.1,3.1 0 0 0 0,-3.81 2.53,2.53 0 0 0 -1.94,-0.7 h -2.88 z"
     id="path16"
     inkscape:connector-curvature="0"
     style="fill:#c7371b" />
  <path
     class="cls-1"
     d="m 107.24645,250.70156 4.2,13.11 4.2,-13.11 h 6 v 18.84 h -4.56 v -4.4 l 0.44,-9 -4.55,13.41 h -3 l -4.57,-13.42 0.44,9 v 4.4 h -4.54 v -18.83 z"
     id="path18"
     inkscape:connector-curvature="0"
     style="fill:#c7371b" />
  <path
     class="cls-1"
     d="m 139.95645,266.02156 h -6.23 l -1.08,3.52 h -4.82 l 6.91,-18.84 h 4.28 l 7,18.84 h -4.88 z m -5.13,-3.51 h 4 l -2,-6.55 z"
     id="path20"
     inkscape:connector-curvature="0"
     style="fill:#c7371b" />
  <path
     class="cls-1"
     d="m 165.05645,254.20156 h -5.65 v 15.34 h -4.58 v -15.34 h -5.55 v -3.5 h 15.75 z"
     id="path22"
     inkscape:connector-curvature="0"
     style="fill:#c7371b" />
  <path
     class="cls-1"
     d="m 176.31645,269.54156 h -4.49 v -18.84 h 4.53 z"
     id="path24"
     inkscape:connector-curvature="0"
     style="fill:#c7371b" />
  <path
     class="cls-1"
     d="m 199.97645,260.51156 a 11.11,11.11 0 0 1 -0.87,4.56 8.05,8.05 0 0 1 -2.39,3.13 l 3,2.4 -2.77,2.36 -4.05,-3.27 a 7.28,7.28 0 0 1 -1.14,0.08 8.22,8.22 0 0 1 -4.28,-1.11 7.55,7.55 0 0 1 -2.9,-3.19 10.63,10.63 0 0 1 -1.08,-4.76 v -1 a 11.13,11.13 0 0 1 1,-4.89 7.53,7.53 0 0 1 2.89,-3.26 8.63,8.63 0 0 1 8.59,0 7.67,7.67 0 0 1 2.92,3.24 10.78,10.78 0 0 1 1.06,4.82 z m -4.63,-0.79 a 8,8 0 0 0 -0.93,-4.27 3,3 0 0 0 -2.69,-1.49 3,3 0 0 0 -2.7,1.43 8,8 0 0 0 -0.92,4.21 v 0.87 a 8.07,8.07 0 0 0 0.92,4.26 3,3 0 0 0 2.73,1.49 3,3 0 0 0 2.66,-1.47 8,8 0 0 0 0.93,-4.21 z"
     id="path26"
     inkscape:connector-curvature="0"
     style="fill:#c7371b" />
  <path
     class="cls-1"
     d="m 221.58645,250.70156 v 12.33 a 7,7 0 0 1 -0.9,3.63 5.76,5.76 0 0 1 -2.56,2.3 9.13,9.13 0 0 1 -3.95,0.8 7.8,7.8 0 0 1 -5.42,-1.78 6.38,6.38 0 0 1 -2,-4.9 v -12.38 h 4.57 v 12.51 c 0,2.06 1,3.1 2.87,3.1 a 2.8,2.8 0 0 0 2.14,-0.78 3.65,3.65 0 0 0 0.72,-2.52 v -12.31 z"
     id="path28"
     inkscape:connector-curvature="0"
     style="fill:#c7371b" />
  <path
     class="cls-1"
     d="m 240.61645,261.54156 h -7.15 v 4.51 h 8.44 v 3.49 h -13 v -18.84 h 13 v 3.5 h -8.47 v 4 h 7.15 z"
     id="path30"
     inkscape:connector-curvature="0"
     style="fill:#c7371b" />
  <path
     class="cls-1"
     d="m 271.06645,261.54156 h -7.15 v 4.51 h 8.44 v 3.49 h -13 v -18.84 h 13 v 3.5 h -8.47 v 4 h 7.15 z"
     id="path32"
     inkscape:connector-curvature="0"
     style="fill:#c7371b" />
  <path
     class="cls-1"
     d="m 293.76645,254.20156 h -5.65 v 15.34 h -4.55 v -15.34 h -5.55 v -3.5 h 15.75 z"
     id="path34"
     inkscape:connector-curvature="0"
     style="fill:#c7371b" />
  <path
     class="cls-1"
     d="m 325.82645,263.16156 a 6.89,6.89 0 0 1 -1.07,3.48 6.35,6.35 0 0 1 -2.72,2.33 9.19,9.19 0 0 1 -4,0.83 7.4,7.4 0 0 1 -5.85,-2.42 10,10 0 0 1 -2.13,-6.83 v -0.94 a 11.42,11.42 0 0 1 1,-4.84 7.23,7.23 0 0 1 2.78,-3.21 7.69,7.69 0 0 1 4.19,-1.14 8.16,8.16 0 0 1 5.52,1.81 7.07,7.07 0 0 1 2.36,5 h -4.52 a 3.45,3.45 0 0 0 -0.87,-2.48 3.6,3.6 0 0 0 -2.49,-0.75 2.71,2.71 0 0 0 -2.48,1.27 8.07,8.07 0 0 0 -0.83,4 v 1.34 a 9.12,9.12 0 0 0 0.75,4.31 2.79,2.79 0 0 0 2.61,1.29 3.45,3.45 0 0 0 2.4,-0.74 3.15,3.15 0 0 0 0.88,-2.34 z"
     id="path36"
     inkscape:connector-curvature="0"
     style="fill:#c7371b" />
  <path
     class="cls-1"
     d="m 348.38645,260.51156 a 11.18,11.18 0 0 1 -1,4.88 7.6,7.6 0 0 1 -2.91,3.27 8.09,8.09 0 0 1 -4.29,1.14 8.28,8.28 0 0 1 -4.27,-1.1 7.64,7.64 0 0 1 -2.91,-3.17 10.8,10.8 0 0 1 -1.09,-4.73 v -1.06 a 11.12,11.12 0 0 1 1,-4.88 7.47,7.47 0 0 1 2.91,-3.27 8.63,8.63 0 0 1 8.59,0 7.73,7.73 0 0 1 2.92,3.24 10.92,10.92 0 0 1 1,4.82 z m -4.62,-0.79 a 7.91,7.91 0 0 0 -0.94,-4.27 3,3 0 0 0 -2.68,-1.45 q -3.42,0 -3.62,5.12 v 1.39 a 8.19,8.19 0 0 0 0.92,4.26 3,3 0 0 0 2.73,1.49 3,3 0 0 0 2.65,-1.47 7.86,7.86 0 0 0 1,-4.21 z"
     id="path38"
     inkscape:connector-curvature="0"
     style="fill:#c7371b" />
  <path
     class="cls-1"
     d="m 361.20645,250.70156 4.21,13.11 4.19,-13.11 h 6 v 18.84 h -4.58 v -4.4 l 0.44,-9 -4.55,13.41 h -3 l -4.57,-13.42 0.44,9 v 4.4 h -4.54 v -18.83 z"
     id="path40"
     inkscape:connector-curvature="0"
     style="fill:#c7371b" />
  <path
     class="cls-1"
     d="m 388.94645,250.70156 4.21,13.11 4.19,-13.11 h 6 v 18.84 h -4.52 v -4.4 l 0.44,-9 -4.56,13.41 h -3 l -4.57,-13.42 0.44,9 v 4.4 h -4.55 v -18.83 z"
     id="path42"
     inkscape:connector-curvature="0"
     style="fill:#c7371b" />
  <path
     class="cls-1"
     d="m 425.50645,250.70156 v 12.33 a 7.13,7.13 0 0 1 -0.89,3.63 5.79,5.79 0 0 1 -2.57,2.34 9.08,9.08 0 0 1 -3.94,0.8 7.81,7.81 0 0 1 -5.43,-1.78 6.42,6.42 0 0 1 -2,-4.9 v -12.42 h 4.57 v 12.51 c 0.05,2.06 1,3.1 2.88,3.1 a 2.76,2.76 0 0 0 2.13,-0.78 3.65,3.65 0 0 0 0.73,-2.52 v -12.31 z"
     id="path44"
     inkscape:connector-curvature="0"
     style="fill:#c7371b" />
  <path
     class="cls-1"
     d="m 448.58645,269.54156 h -4.52 l -6.68,-11.72 v 11.72 h -4.56 v -18.84 h 4.54 l 6.67,11.72 v -11.72 h 4.53 z"
     id="path46"
     inkscape:connector-curvature="0"
     style="fill:#c7371b" />
  <path
     class="cls-1"
     d="m 460.82645,269.54156 h -4.53 v -18.84 h 4.53 z"
     id="path48"
     inkscape:connector-curvature="0"
     style="fill:#c7371b" />
  <path
     class="cls-1"
     d="m 483.72645,263.16156 a 7,7 0 0 1 -1.06,3.48 6.44,6.44 0 0 1 -2.73,2.33 9.16,9.16 0 0 1 -4,0.83 7.4,7.4 0 0 1 -5.85,-2.42 10,10 0 0 1 -2.13,-6.83 v -0.94 a 11.42,11.42 0 0 1 1,-4.84 7.23,7.23 0 0 1 2.78,-3.21 7.72,7.72 0 0 1 4.19,-1.14 8.16,8.16 0 0 1 5.52,1.81 7.12,7.12 0 0 1 2.37,5 h -4.53 a 3.45,3.45 0 0 0 -0.87,-2.48 3.58,3.58 0 0 0 -2.49,-0.75 2.71,2.71 0 0 0 -2.48,1.27 8.18,8.18 0 0 0 -0.83,4 v 1.34 a 9,9 0 0 0 0.76,4.31 2.76,2.76 0 0 0 2.6,1.29 3.45,3.45 0 0 0 2.4,-0.74 3.15,3.15 0 0 0 0.88,-2.34 z"
     id="path50"
     inkscape:connector-curvature="0"
     style="fill:#c7371b" />
  <path
     class="cls-1"
     d="m 501.08645,266.02156 h -6.26 l -1.09,3.52 h -4.85 l 6.94,-18.84 h 4.28 l 7,18.84 h -4.88 z m -5.14,-3.51 h 4 l -2,-6.53 z"
     id="path52"
     inkscape:connector-curvature="0"
     style="fill:#c7371b" />
  <path
     class="cls-1"
     d="m 526.18645,254.20156 h -5.66 v 15.34 h -4.54 v -15.34 h -5.55 v -3.5 h 15.75 z"
     id="path54"
     inkscape:connector-curvature="0"
     style="fill:#c7371b" />
  <path
     class="cls-1"
     d="m 537.44645,269.54156 h -4.53 v -18.84 h 4.53 z"
     id="path56"
     inkscape:connector-curvature="0"
     style="fill:#c7371b" />
  <path
     class="cls-1"
     d="m 561.07645,260.51156 a 11.18,11.18 0 0 1 -1,4.88 7.6,7.6 0 0 1 -2.91,3.27 8.14,8.14 0 0 1 -4.29,1.14 8.25,8.25 0 0 1 -4.27,-1.1 7.58,7.58 0 0 1 -2.91,-3.17 10.8,10.8 0 0 1 -1.09,-4.73 v -1.06 a 11.26,11.26 0 0 1 1,-4.88 7.56,7.56 0 0 1 2.92,-3.27 8.63,8.63 0 0 1 8.59,0 7.64,7.64 0 0 1 2.91,3.24 10.78,10.78 0 0 1 1.06,4.82 z m -4.62,-0.79 a 7.91,7.91 0 0 0 -0.94,-4.27 3,3 0 0 0 -2.69,-1.49 c -2.27,0 -3.48,1.71 -3.61,5.12 v 1.39 a 8.19,8.19 0 0 0 0.92,4.26 3,3 0 0 0 2.69,1.53 3,3 0 0 0 2.65,-1.47 8,8 0 0 0 1,-4.21 z"
     id="path58"
     inkscape:connector-curvature="0"
     style="fill:#c7371b" />
  <path
     class="cls-1"
     d="m 583.66645,269.54156 h -4.52 l -6.68,-11.72 v 11.72 h -4.54 v -18.84 h 4.54 l 6.67,11.72 v -11.72 h 4.53 z"
     id="path60"
     inkscape:connector-curvature="0"
     style="fill:#c7371b" />
  <path
     class="cls-2"
     d="M 14.596448,232.67156 H 5.8964485 l -1.95,5.44 h -2.82 l 7.93,-20.76 h 2.3899995 l 7.94,20.76 h -2.81 z m -7.8699995,-2.23 h 7.0999995 l -3.54,-9.71 z"
     id="path62"
     inkscape:connector-curvature="0"
     style="fill:#273184" />
  <path
     class="cls-2"
     d="m 33.266448,228.85156 a 12.74,12.74 0 0 1 -5.13,-2.49 4.73,4.73 0 0 1 -1.6,-3.64 5,5 0 0 1 2,-4.05 7.76,7.76 0 0 1 5.09,-1.61 8.55,8.55 0 0 1 3.82,0.83 6.27,6.27 0 0 1 2.59,2.28 5.78,5.78 0 0 1 0.92,3.18 h -2.75 a 3.79,3.79 0 0 0 -1.2,-3 4.87,4.87 0 0 0 -3.38,-1.08 5,5 0 0 0 -3.15,0.89 3,3 0 0 0 -1.14,2.48 2.67,2.67 0 0 0 1.08,2.15 10.59,10.59 0 0 0 3.66,1.61 16.83,16.83 0 0 1 4,1.6 6.15,6.15 0 0 1 2.17,2.05 5.23,5.23 0 0 1 0.7,2.75 4.84,4.84 0 0 1 -2,4 8.35,8.35 0 0 1 -5.26,1.52 9.66,9.66 0 0 1 -4,-0.82 6.72,6.72 0 0 1 -2.86,-2.24 5.49,5.49 0 0 1 -1,-3.24 h 2.75 a 3.59,3.59 0 0 0 1.39,3 5.86,5.86 0 0 0 3.72,1.09 5.38,5.38 0 0 0 3.32,-0.88 2.87,2.87 0 0 0 1.15,-2.41 2.8,2.8 0 0 0 -1.07,-2.36 12.35,12.35 0 0 0 -3.82,-1.61 z"
     id="path64"
     inkscape:connector-curvature="0"
     style="fill:#273184" />
  <path
     class="cls-2"
     d="m 55.546448,228.85156 a 12.75,12.75 0 0 1 -5.12,-2.49 4.74,4.74 0 0 1 -1.61,-3.64 5,5 0 0 1 2,-4.05 7.81,7.81 0 0 1 5.1,-1.61 8.55,8.55 0 0 1 3.82,0.83 6.27,6.27 0 0 1 2.59,2.28 5.86,5.86 0 0 1 0.92,3.18 h -2.75 a 3.79,3.79 0 0 0 -1.2,-3 4.87,4.87 0 0 0 -3.38,-1.08 5,5 0 0 0 -3.16,0.89 3,3 0 0 0 -1.13,2.48 2.67,2.67 0 0 0 1.08,2.15 10.59,10.59 0 0 0 3.66,1.61 16.83,16.83 0 0 1 4.05,1.6 6.24,6.24 0 0 1 2.17,2.05 5.23,5.23 0 0 1 0.7,2.75 4.84,4.84 0 0 1 -2,4 8.37,8.37 0 0 1 -5.26,1.52 9.74,9.74 0 0 1 -4,-0.82 6.78,6.78 0 0 1 -2.86,-2.24 5.48,5.48 0 0 1 -1,-3.24 h 2.75 a 3.56,3.56 0 0 0 1.39,3 5.84,5.84 0 0 0 3.72,1.09 5.38,5.38 0 0 0 3.32,-0.88 2.87,2.87 0 0 0 1.15,-2.41 2.8,2.8 0 0 0 -1.07,-2.36 12.32,12.32 0 0 0 -3.88,-1.61 z"
     id="path66"
     inkscape:connector-curvature="0"
     style="fill:#273184" />
  <path
     class="cls-2"
     d="m 87.686448,228.40156 a 12.72,12.72 0 0 1 -1,5.32 7.69,7.69 0 0 1 -2.9,3.47 8,8 0 0 1 -4.4,1.2 7.74,7.74 0 0 1 -7.29,-4.64 12.32,12.32 0 0 1 -1.08,-5.17 v -1.49 a 12.58,12.58 0 0 1 1,-5.29 8.16,8.16 0 0 1 11.69,-3.53 7.73,7.73 0 0 1 2.93,3.49 12.83,12.83 0 0 1 1,5.33 z m -2.72,-1.34 a 9.37,9.37 0 0 0 -1.48,-5.67 4.89,4.89 0 0 0 -4.15,-2 4.82,4.82 0 0 0 -4.09,2 9.15,9.15 0 0 0 -1.53,5.48 v 1.53 a 9.33,9.33 0 0 0 1.5,5.62 5.27,5.27 0 0 0 8.25,0.12 9.29,9.29 0 0 0 1.5,-5.54 z"
     id="path68"
     inkscape:connector-curvature="0"
     style="fill:#273184" />
  <path
     class="cls-2"
     d="m 112.02645,231.52156 a 7.67,7.67 0 0 1 -2.43,5.08 7.93,7.93 0 0 1 -5.44,1.79 7.29,7.29 0 0 1 -5.890002,-2.64 10.58,10.58 0 0 1 -2.22,-7.05 v -2 a 11.8,11.8 0 0 1 1,-5.09 7.75,7.75 0 0 1 2.93,-3.37 8.13,8.13 0 0 1 4.390002,-1.18 7.51,7.51 0 0 1 5.31,1.85 7.72,7.72 0 0 1 2.32,5.11 h -2.75 a 5.92,5.92 0 0 0 -1.55,-3.6 4.64,4.64 0 0 0 -3.33,-1.12 4.9,4.9 0 0 0 -4.11,1.94 9,9 0 0 0 -1.430002,5.52 v 2 a 9.14,9.14 0 0 0 1.410002,5.37 4.55,4.55 0 0 0 3.95,2 5.26,5.26 0 0 0 3.5,-1 5.78,5.78 0 0 0 1.62,-3.6 z"
     id="path70"
     inkscape:connector-curvature="0"
     style="fill:#273184" />
  <path
     class="cls-2"
     d="m 123.66645,238.11156 h -2.74 v -20.76 h 2.74 z"
     id="path72"
     inkscape:connector-curvature="0"
     style="fill:#273184" />
  <path
     class="cls-2"
     d="m 145.34645,232.67156 h -8.69 l -2,5.44 h -2.82 l 7.99,-20.76 h 2.39 l 7.95,20.76 h -2.81 z m -7.87,-2.23 h 7.06 l -3.53,-9.71 z"
     id="path74"
     inkscape:connector-curvature="0"
     style="fill:#273184" />
  <path
     class="cls-2"
     d="m 170.40645,219.59156 h -6.67 v 18.52 h -2.73 v -18.52 h -6.66 v -2.24 h 16.06 z"
     id="path76"
     inkscape:connector-curvature="0"
     style="fill:#273184" />
  <path
     class="cls-2"
     d="m 181.38645,238.11156 h -2.74 v -20.76 h 2.74 z"
     id="path78"
     inkscape:connector-curvature="0"
     style="fill:#273184" />
  <path
     class="cls-2"
     d="m 207.31645,228.40156 a 12.88,12.88 0 0 1 -1,5.32 7.77,7.77 0 0 1 -2.91,3.47 8,8 0 0 1 -11.68,-3.44 12.32,12.32 0 0 1 -1.08,-5.17 v -1.49 a 12.74,12.74 0 0 1 1,-5.29 7.68,7.68 0 0 1 7.3,-4.74 8,8 0 0 1 4.4,1.21 7.79,7.79 0 0 1 2.93,3.49 13,13 0 0 1 1,5.33 z m -2.72,-1.34 a 9.3,9.3 0 0 0 -1.48,-5.67 5.29,5.29 0 0 0 -8.24,0 9.15,9.15 0 0 0 -1.53,5.48 v 1.53 a 9.26,9.26 0 0 0 1.51,5.62 5.26,5.26 0 0 0 8.24,0.12 9.29,9.29 0 0 0 1.5,-5.54 z"
     id="path80"
     inkscape:connector-curvature="0"
     style="fill:#273184" />
  <path
     class="cls-2"
     d="m 232.34645,238.11156 h -2.75 l -10.46,-16 v 16 h -2.75 v -20.76 h 2.75 l 10.48,16.07 v -16.07 h 2.73 z"
     id="path82"
     inkscape:connector-curvature="0"
     style="fill:#273184" />
  <path
     class="cls-2"
     d="m 254.36645,238.11156 v -20.76 h 5.86 a 9.44,9.44 0 0 1 4.79,1.2 8.05,8.05 0 0 1 3.21,3.4 11.08,11.08 0 0 1 1.15,5.08 v 1.32 a 11.2,11.2 0 0 1 -1.13,5.15 8,8 0 0 1 -3.24,3.4 10.13,10.13 0 0 1 -4.9,1.21 z m 2.73,-18.52 v 16.28 h 2.88 a 6.28,6.28 0 0 0 4.93,-2 8.15,8.15 0 0 0 1.76,-5.61 v -1.21 a 8.25,8.25 0 0 0 -1.66,-5.5 5.88,5.88 0 0 0 -4.71,-2 z"
     id="path84"
     inkscape:connector-curvature="0"
     style="fill:#273184" />
  <path
     class="cls-2"
     d="m 290.20645,228.51156 h -9 v 7.36 h 10.45 v 2.24 h -13.18 v -20.76 h 13 v 2.24 h -10.3 v 6.68 h 9 z"
     id="path86"
     inkscape:connector-curvature="0"
     style="fill:#273184" />
  <path
     class="cls-2"
     d="m 306.15645,228.85156 a 12.74,12.74 0 0 1 -5.13,-2.49 4.73,4.73 0 0 1 -1.6,-3.64 5,5 0 0 1 2,-4.05 7.76,7.76 0 0 1 5.09,-1.61 8.55,8.55 0 0 1 3.82,0.83 6.27,6.27 0 0 1 2.59,2.28 5.78,5.78 0 0 1 0.92,3.18 h -2.75 a 3.79,3.79 0 0 0 -1.2,-3 4.87,4.87 0 0 0 -3.38,-1.08 5,5 0 0 0 -3.16,0.89 3,3 0 0 0 -1.13,2.48 2.67,2.67 0 0 0 1.08,2.15 10.59,10.59 0 0 0 3.66,1.61 16.83,16.83 0 0 1 4,1.6 6.15,6.15 0 0 1 2.17,2.05 5.23,5.23 0 0 1 0.7,2.75 4.84,4.84 0 0 1 -2,4 8.35,8.35 0 0 1 -5.26,1.52 9.74,9.74 0 0 1 -4,-0.82 6.74,6.74 0 0 1 -2.85,-2.24 5.49,5.49 0 0 1 -1,-3.24 h 2.75 a 3.56,3.56 0 0 0 1.39,3 5.86,5.86 0 0 0 3.72,1.09 5.38,5.38 0 0 0 3.32,-0.88 2.87,2.87 0 0 0 1.15,-2.41 2.8,2.8 0 0 0 -1.07,-2.36 12.35,12.35 0 0 0 -3.83,-1.61 z"
     id="path88"
     inkscape:connector-curvature="0"
     style="fill:#273184" />
  <path
     class="cls-2"
     d="m 346.24645,228.51156 h -9 v 7.36 h 10.45 v 2.24 h -13.18 v -20.76 h 13 v 2.24 h -10.27 v 6.68 h 9 z m -4,-16.89 h 3.19 l -3.82,4.19 h -2.12 z"
     id="path90"
     inkscape:connector-curvature="0"
     style="fill:#273184" />
  <path
     class="cls-2"
     d="m 370.69645,219.59156 h -6.67 v 18.52 h -2.72 v -18.52 h -6.66 v -2.24 h 16 z"
     id="path92"
     inkscape:connector-curvature="0"
     style="fill:#273184" />
  <path
     class="cls-2"
     d="m 393.35645,217.35156 v 14.11 a 6.61,6.61 0 0 1 -1.85,4.81 7.43,7.43 0 0 1 -5,2.09 h -0.73 a 7.75,7.75 0 0 1 -5.43,-1.84 6.57,6.57 0 0 1 -2.06,-5.06 v -14.11 h 2.71 v 14.06 a 4.32,4.32 0 0 0 4.78,4.74 4.8,4.8 0 0 0 3.56,-1.24 4.75,4.75 0 0 0 1.23,-3.49 v -14.07 z"
     id="path94"
     inkscape:connector-curvature="0"
     style="fill:#273184" />
  <path
     class="cls-2"
     d="m 402.64645,238.11156 v -20.76 h 5.86 a 9.44,9.44 0 0 1 4.79,1.2 8.05,8.05 0 0 1 3.21,3.4 11.08,11.08 0 0 1 1.15,5.08 v 1.32 a 11.2,11.2 0 0 1 -1.13,5.15 8,8 0 0 1 -3.24,3.4 10.13,10.13 0 0 1 -4.9,1.21 z m 2.73,-18.52 v 16.28 h 2.88 a 6.28,6.28 0 0 0 4.93,-2 8.15,8.15 0 0 0 1.76,-5.61 v -1.21 a 8.25,8.25 0 0 0 -1.66,-5.5 5.88,5.88 0 0 0 -4.71,-2 z"
     id="path96"
     inkscape:connector-curvature="0"
     style="fill:#273184" />
  <path
     class="cls-2"
     d="m 429.68645,238.11156 h -2.73 v -20.76 h 2.73 z"
     id="path98"
     inkscape:connector-curvature="0"
     style="fill:#273184" />
  <path
     class="cls-2"
     d="m 451.37645,232.67156 h -8.7 l -2,5.44 h -2.82 l 7.97,-20.76 h 2.39 l 7.94,20.76 h -2.81 z m -7.87,-2.23 h 7.06 l -3.54,-9.71 z"
     id="path100"
     inkscape:connector-curvature="0"
     style="fill:#273184" />
  <path
     class="cls-2"
     d="m 479.88645,238.11156 h -2.76 l -10.45,-16 v 16 h -2.75 v -20.76 h 2.75 l 10.48,16.07 v -16.07 h 2.73 z"
     id="path102"
     inkscape:connector-curvature="0"
     style="fill:#273184" />
  <path
     class="cls-2"
     d="m 503.63645,219.59156 h -6.67 v 18.52 h -2.73 v -18.52 h -6.65 v -2.24 h 16 z"
     id="path104"
     inkscape:connector-curvature="0"
     style="fill:#273184" />
  <path
     class="cls-2"
     d="m 517.56645,228.85156 a 12.62,12.62 0 0 1 -5.12,-2.49 4.74,4.74 0 0 1 -1.61,-3.64 5,5 0 0 1 2,-4.05 7.81,7.81 0 0 1 5.1,-1.61 8.5,8.5 0 0 1 3.81,0.83 6.29,6.29 0 0 1 2.6,2.28 5.86,5.86 0 0 1 0.92,3.18 h -2.76 a 3.79,3.79 0 0 0 -1.19,-3 4.88,4.88 0 0 0 -3.38,-1.08 5,5 0 0 0 -3.16,0.89 3,3 0 0 0 -1.13,2.48 2.66,2.66 0 0 0 1.07,2.15 10.57,10.57 0 0 0 3.67,1.61 17.17,17.17 0 0 1 4.05,1.6 6.2,6.2 0 0 1 2.16,2.05 5.24,5.24 0 0 1 0.71,2.75 4.85,4.85 0 0 1 -2,4 8.33,8.33 0 0 1 -5.26,1.52 9.66,9.66 0 0 1 -4,-0.82 6.72,6.72 0 0 1 -2.86,-2.24 5.48,5.48 0 0 1 -1,-3.24 h 2.75 a 3.56,3.56 0 0 0 1.39,3 5.81,5.81 0 0 0 3.71,1.09 5.38,5.38 0 0 0 3.32,-0.88 2.87,2.87 0 0 0 1.16,-2.41 2.83,2.83 0 0 0 -1.07,-2.36 12.43,12.43 0 0 0 -3.88,-1.61 z"
     id="path106"
     inkscape:connector-curvature="0"
     style="fill:#273184" />
  <path
     class="cls-2"
     d="m 557.66645,228.51156 h -9 v 7.36 h 10.45 v 2.24 h -13.19 v -20.76 h 13 v 2.24 h -10.26 v 6.68 h 9 z"
     id="path108"
     inkscape:connector-curvature="0"
     style="fill:#273184" />
  <path
     class="cls-2"
     d="m 583.44645,238.11156 h -2.76 l -10.45,-16 v 16 h -2.75 v -20.76 h 2.75 l 10.48,16.07 v -16.07 h 2.73 z"
     id="path110"
     inkscape:connector-curvature="0"
     style="fill:#273184" />
  <path
     class="cls-2"
     d="m 351.19645,32.79156 a 32.78,32.78 0 1 0 -41.88,31.48 v 106.69 a 9.11,9.11 0 1 0 18.21,0 v -106.69 a 32.84,32.84 0 0 0 23.67,-31.48 z m -32.78,16.22 a 16.22,16.22 0 1 1 16.22,-16.22 16.23,16.23 0 0 1 -16.22,16.22 z"
     id="path112"
     inkscape:connector-curvature="0"
     style="fill:#273184" />
  <path
     class="cls-2"
     d="m 84.716448,181.46156 a 84.74,84.74 0 1 1 56.000002,-148.36 9.193238,9.193238 0 1 1 -12.15,13.8 66.35,66.35 0 1 0 0.14,99.52 9.19,9.19 0 0 1 12.12,13.77 84.65,84.65 0 0 1 -56.110002,21.27 z"
     id="path114"
     inkscape:connector-curvature="0"
     style="fill:#273184" />
  <path
     class="cls-2"
     d="m 467.01645,181.46156 a 84.74,84.74 0 1 1 56,-148.36 9.2064665,9.2064665 0 1 1 -12.19,13.8 66.35,66.35 0 1 0 0.14,99.52 9.1919163,9.1919163 0 0 1 12.18,13.77 84.65,84.65 0 0 1 -56.13,21.27 z"
     id="path116"
     inkscape:connector-curvature="0"
     style="fill:#273184" />
  <path
     class="cls-2"
     d="m 263.15645,181.46156 c -57,0 -84.74,-27.72 -84.74,-84.74 v -74.19 a 9.2,9.2 0 1 1 18.39,0 v 74.19 c 0,47.13 19.22,66.35 66.35,66.35 a 9.2,9.2 0 0 1 0,18.39 z"
     id="path118"
     inkscape:connector-curvature="0"
     style="fill:#273184" />
  <path
     class="cls-1"
     d="m 582.36645,83.96156 a 1.68,1.68 0 0 0 -1.1,0.14 l -44.21,22.48 a 1.66,1.66 0 0 0 -0.88,1.77 1.57,1.57 0 0 0 0.16,0.46 1.67,1.67 0 0 0 1.28,0.89 l 16.5,1.95 a 139.49,139.49 0 0 1 -19.22,20.31 6.41,6.41 0 1 0 8.2,9.85 149.14,149.14 0 0 0 21,-22.14 l 6.38,12.55 a 1.65,1.65 0 0 0 3.09,-0.39 l 10,-45.91 a 1.65,1.65 0 0 0 -1.2,-1.96 z"
     id="path120"
     inkscape:connector-curvature="0"
     style="fill:#c7371b" />
  <path
     class="cls-1"
     d="m 607.18645,67.24156 a 2,2 0 0 0 -2.8,-0.54 l -10,6.76 a 2.0177339,2.0177339 0 0 0 2.25,3.35 l 10.06,-6.76 a 2,2 0 0 0 0.49,-2.81 z"
     id="path122"
     inkscape:connector-curvature="0"
     style="fill:#c7371b" />
  <path
     class="cls-1"
     d="m 574.70645,69.62156 -6.76,-10 a 2.0218865,2.0218865 0 0 0 -3.36,2.25 l 6.77,10.06 a 2.0205259,2.0205259 0 1 0 3.35,-2.26 z"
     id="path124"
     inkscape:connector-curvature="0"
     style="fill:#c7371b" />
  <path
     class="cls-1"
     d="m 599.51645,106.49156 -6.77,-10.05 a 2.0177339,2.0177339 0 0 0 -3.35,2.25 l 6.77,10.06 a 2.0205259,2.0205259 0 0 0 3.35,-2.26 z"
     id="path126"
     inkscape:connector-curvature="0"
     style="fill:#c7371b" />
  <path
     class="cls-1"
     d="m 587.13645,68.69156 2.32,-11.9 a 2.0367192,2.0367192 0 1 0 -4,-0.77 l -2.28,11.94 a 2,2 0 0 0 0.3,1.52 2,2 0 0 0 1.29,0.85 2,2 0 0 0 2.37,-1.64 z"
     id="path128"
     inkscape:connector-curvature="0"
     style="fill:#c7371b" />
  <path
     class="cls-1"
     d="m 568.17645,81.45156 a 2,2 0 0 0 -1.6,-2.37 l -11.89,-2.33 a 2.0376702,2.0376702 0 0 0 -0.78,4 l 11.9,2.33 a 2,2 0 0 0 2.37,-1.63 z"
     id="path130"
     inkscape:connector-curvature="0"
     style="fill:#c7371b" />
  <path
     class="cls-1"
     d="m 611.82645,89.96156 a 2,2 0 0 0 -1.6,-2.37 l -11.89,-2.33 a 2.0367192,2.0367192 0 0 0 -0.77,4 l 11.89,2.33 a 2,2 0 0 0 2.37,-1.63 z"
     id="path132"
     inkscape:connector-curvature="0"
     style="fill:#c7371b" />
</svg>
