<?xml version="1.0" encoding="UTF-8" standalone="no"?>
<!-- Generator: Adobe Illustrator 19.0.0, SVG Export Plug-In . SVG Version: 6.00 Build 0)  -->

<svg
   version="1.1"
   id="Layer_1"
   x="0px"
   y="0px"
   viewBox="0 0 399.20303 111.9"
   xml:space="preserve"
   sodipodi:docname="ftc-logo.svg"
   inkscape:version="1.2.1 (9c6d41e410, 2022-07-14)"
   width="399.20303"
   height="111.9"
   xmlns:inkscape="http://www.inkscape.org/namespaces/inkscape"
   xmlns:sodipodi="http://sodipodi.sourceforge.net/DTD/sodipodi-0.dtd"
   xmlns="http://www.w3.org/2000/svg"
   xmlns:svg="http://www.w3.org/2000/svg"><defs
   id="defs41" /><sodipodi:namedview
   id="namedview39"
   pagecolor="#302d6b"
   bordercolor="#000000"
   borderopacity="0.25"
   inkscape:showpageshadow="2"
   inkscape:pageopacity="0"
   inkscape:pagecheckerboard="0"
   inkscape:deskcolor="#d1d1d1"
   showgrid="false"
   inkscape:zoom="1.888"
   inkscape:cx="32.574153"
   inkscape:cy="114.93644"
   inkscape:window-width="2160"
   inkscape:window-height="1346"
   inkscape:window-x="-11"
   inkscape:window-y="-11"
   inkscape:window-maximized="1"
   inkscape:current-layer="XMLID_1_" />
<style
   type="text/css"
   id="style2">
	.st0{fill:#99999A;}
	.st1{fill:#FFFFFF;}
	.st2{fill:#ED1C24;}
	.st3{fill:#0066B3;}
	.st4{fill:#F57E25;}
</style>
<g
   id="XMLID_1_"
   transform="translate(-155.5,-106)">
	<path
   id="XMLID_3_"
   class="st0"
   d="m 245.8,141.6 c 3.2,0 6.5,0.2 9.4,0.7 l 7.2,-7.7 c -5,-1.7 -10.7,-2.7 -16.9,-2.7 -10.2,0 -19.6,3 -26.6,7.5 l 6.5,6 c 6,-2.3 12.9,-3.8 20.4,-3.8 z" />
	<path
   id="XMLID_4_"
   class="st1"
   d="m 245.8,132.1 c 6,0 11.7,1 16.9,2.7 l 8,-8.2 c -7.5,-3 -15.9,-4.5 -24.9,-4.5 -13.4,0 -25.6,3.7 -34.8,9.7 l 8.2,8 c 6.9,-4.7 16.1,-7.7 26.6,-7.7 z" />
	<path
   id="XMLID_5_"
   class="st0"
   d="m 207.7,164.5 c 0.7,-2.7 2,-5.2 3.5,-7.7 l -3.2,-3.2 c -0.7,2 -1,4 -1,6.2 0,1.4 0.2,3.2 0.7,4.7 z" />
	<path
   id="XMLID_6_"
   class="st0"
   d="m 184.1,182.1 -1.2,7 13.4,-5.7 c -0.7,-1.7 -1,-4 -1.5,-6 z" />
	<polygon
   id="XMLID_7_"
   class="st0"
   points="174.7,106.8 155.5,212.2 164.7,213 183.6,106 " />
	<path
   id="XMLID_8_"
   class="st2"
   d="M 239.6,167.5 V 159 l -13.9,-13.2 -6.5,-6.2 -8.2,-7.7 -27.4,-25.9 -19.1,107 40.3,-17.7 c -4,-3.5 -7,-7.5 -9,-11.7 l -12.9,5.5 1.2,-7 8.5,-44.5 0.7,-3.7 7,7 9,9.2 4,4 15.9,13.7 -15.4,7.2 c 4,4 8.7,7.5 15.2,9.4 l 19.4,-8.7 z" />
	<path
   id="XMLID_9_"
   class="st0"
   d="m 283.6,164.5 c 0.5,-1.5 0.5,-3.2 0.5,-4.7 0,-4.7 -1.7,-9.2 -4.7,-13.2 l -4.5,4.7 c 4.4,3.7 7.7,8.2 8.7,13.2 z" />
	<path
   id="XMLID_10_"
   class="st0"
   d="m 292.3,209.5 -11,-10.5 c -1.7,1.2 -3.5,2.2 -5.5,3.2 l 16.4,15.7 50.7,-52.7 v -8.5 z" />
	<path
   id="XMLID_11_"
   class="st0"
   d="m 255.5,174.2 -9,-8.7 -7,-6.5 v 8.5 l 9.7,9.2 9.2,9 c 2.2,-0.5 4.5,-1.2 6.7,-2.2 z" />
	<polygon
   id="XMLID_12_"
   class="st0"
   points="259.7,158.5 263.9,162.7 274.9,151.3 279.6,146.6 288,137.9 290.5,134.9 318.4,161.7 322.9,157.3 290.5,126.4 283.3,133.9 275.4,142.1 269.9,147.8 " />
	<path
   id="XMLID_13_"
   class="st1"
   d="m 288,137.9 -8.5,8.7 c 3,4 4.7,8.5 4.7,13.2 0,1.5 -0.2,3.2 -0.5,4.7 -1,4 -3.2,7.7 -6.2,10.9 -3.2,3.2 -7.5,6 -12.2,8.2 -2,1 -4.2,1.5 -6.7,2.2 -4,1 -8.2,1.5 -12.7,1.5 -5.5,0 -10.7,-0.7 -15.4,-2.2 -6.5,-2 -11.9,-5.2 -15.9,-9.2 -1.5,-1.5 -2.7,-3 -3.7,-4.7 -1.2,-2 -2.2,-4.2 -2.7,-6.5 -0.5,-1.5 -0.5,-3.2 -0.5,-4.7 0,-2.2 0.2,-4.2 1,-6.2 l -9.7,-9.7 c -3.5,5.2 -5.5,11.2 -5.5,17.4 0,1.5 0.2,3.2 0.5,4.7 0.5,3.7 2,7.5 4,10.7 1,1.7 2.2,3.2 3.5,5 3.5,4 7.7,7.7 12.9,10.7 9,5 19.9,8 32.1,8 8.5,0 16.4,-1.5 23.6,-4 2.2,-0.7 4.2,-1.7 6.2,-2.7 4.5,-2.2 8.7,-5.2 11.9,-8.5 5.7,-5.5 9.4,-11.9 10.7,-19.1 0.2,-1.5 0.5,-3.2 0.5,-4.7 -0.9,-9.3 -4.9,-17.3 -11.4,-23.7 z" />
	<path
   id="XMLID_14_"
   class="st3"
   d="m 255.2,174.2 9.7,9.2 c 5,-2 9.2,-4.7 12.4,-8 l -13.2,-12.7 -4.2,-4.2 10.2,-10.7 5.5,-5.7 8,-8.2 7.2,-7.5 32.1,30.8 -4.2,4.5 -26.4,27.4 c -2.7,3.7 -6.5,7.2 -10.7,10.2 l 10.7,10.4 50.7,-53 -52.7,-50.7 -19.9,20.6 -8,8.2 -7.2,7.7 -15.6,16.5 z" />
	<path
   id="XMLID_15_"
   class="st0"
   d="m 210.7,171.2 0.2,0.5 c 0.7,1.2 1.7,2.2 2.7,3.5 l 15.7,-7.2 -36.1,-33.8 -1,5.2 28.3,28.1 z" />
	<path
   id="XMLID_16_"
   class="st0"
   d="m 298.5,161.2 c 0,1.5 -0.2,3.2 -0.5,4.7 -1.2,7.2 -5,13.7 -10.7,19.1 -3.5,3.2 -7.5,6 -11.9,8.5 -2,1 -4,2 -6.2,2.7 -7,2.7 -15.2,4 -23.6,4 -12.2,0 -23.1,-3 -32.1,-8 -5.2,-3 -9.4,-6.5 -12.9,-10.7 -1.2,-1.5 -2.5,-3.2 -3.5,-5 -2,-3.5 -3.2,-7 -4,-10.7 -0.2,-1.5 -0.5,-3.2 -0.5,-4.7 0,-0.5 0,-1 0,-1.5 -0.2,1.5 0,9.4 0,11.2 0,2.5 0.2,5 1,7.5 0.5,2 1.2,3.7 2,5.5 2.2,4.5 5.2,8.5 9.2,12.2 9.7,8.5 24.1,13.9 40.5,13.9 11.2,0 21.6,-2.7 30.3,-7 2,-1 3.7,-2.2 5.5,-3.2 4.2,-3 8,-6.2 10.7,-10.2 4,-5.5 6.2,-11.7 6.2,-18.4 0,-1.5 0,-8.2 0,-10.7 0.5,-0.9 0.5,0.3 0.5,0.8 z" />
	
	
	
	
	
	
	
	
	
	
	
	
	
	<polygon
   id="XMLID_32_"
   points="188.8,246.5 185.6,259.4 167.7,259.4 163.5,277.8 144.8,277.8 157,225.1 193.3,225.1 189.8,239.1 172.4,239.1 170.7,246.5 "
   transform="translate(199.50304,-91.392133)"
   style="fill:#ffffff;fill-opacity:1" />
	<polygon
   id="XMLID_33_"
   points="216.9,225.1 204.7,277.8 186.1,277.8 198.3,225.1 "
   transform="translate(199.50304,-91.392133)"
   style="fill:#ffffff;fill-opacity:1" />
	<path
   id="XMLID_36_"
   d="m 421.40304,134.00787 1.2,-0.2 c 6,-0.7 13.4,-1.2 17.7,-1.2 7,0 12.2,0.7 16.2,2.5 5.2,2.2 8.2,6.7 8.2,12.4 0,4.7 -1.7,9.4 -4.7,12.9 -2.7,3 -5,4.5 -9.9,6 l -1.2,0.5 c 0.5,0.5 0.7,0.5 1,0.7 1.5,1.7 6,10.2 9.4,18.6 h -20.6 c -2.7,-7.5 -3.5,-9.4 -7,-17.9 l -4.2,17.9 h -18.2 z m 13.9,24.8 c 6,0 10.2,-3.5 10.2,-8.7 0,-2.7 -2,-4 -6,-4 -1,0 -1.7,0 -3,0.2 l -2.7,12.2 c 0.8,0.1 0.8,0.3 1.5,0.3 z"
   style="fill:#ffffff;fill-opacity:1" />
	<polygon
   id="XMLID_37_"
   points="355.2,225.1 351.9,240.3 338.5,240.3 329.6,277.6 310.9,277.6 319.9,240.3 305.2,240.3 309.7,225.1 "
   transform="translate(199.50304,-91.392133)"
   style="fill:#ffffff;fill-opacity:1" />
	<path
   id="XMLID_42_"
   d="m 537.80304,177.00787 c 2.5,0 4.5,2 4.5,4.5 0,2.5 -2,4.5 -4.5,4.5 -2.5,0 -4.5,-2 -4.5,-4.5 0,-2.5 2,-4.5 4.5,-4.5 z m 0,8.5 c 2.2,0 4,-1.7 4,-4 0,-2.2 -1.7,-4 -4,-4 -2.2,0 -4,1.7 -4,4 0,2.2 1.7,4 4,4 z m -1.8,-6.3 c 0.2,0 0.2,0 0.7,0 0.5,0 0.7,0 0.7,0 1.5,0 2.2,0.5 2.2,1.7 0,0.7 -0.2,1 -1,1.2 0.2,0.2 0.7,1 1.2,1.7 h -1.7 c -0.2,-0.7 -0.5,-0.7 -1,-1.5 v 1.5 h -1.5 v -4.7 h 0.4 z m 1.8,2 c 0.5,0 0.7,-0.2 0.7,-0.5 0,-0.2 -0.2,-0.5 -0.5,-0.5 0,0 0,0 -0.2,0 v 1 c -0.3,0 0,0 0,0 z"
   style="fill:#ffffff;fill-opacity:1" />
	<path
   id="XMLID_43_"
   d="m 461.20304,185.00787 c 5.2,1.5 10.9,2.5 16.4,2.5 7.2,0 12.9,-1.7 17.7,-5.2 5.2,-3.7 8.7,-9.7 8.7,-14.9 0,-3.5 -1.5,-6.7 -4.2,-9.2 -2.2,-1.7 -4.5,-3 -9,-5.2 l -3.7,-1.7 c -1.2,-0.7 -1.7,-1.2 -1.7,-2 0,-2 2.5,-3.2 5.7,-3.2 2.5,0 5.5,0.7 10.9,2.5 l 3.7,-14.2 c -4.2,-1.2 -8.2,-1.7 -12.2,-1.7 -15.4,0 -27.1,8.5 -27.1,19.1 0,5.7 3.7,9.7 13.2,14.2 4.5,2 5.2,2.5 5.2,4 0,2.2 -2.2,3.5 -6.2,3.5 -3.2,0 -7.7,-1 -13.4,-3.2 z"
   style="fill:#ffffff;fill-opacity:1" />
</g>
</svg>
