<?xml version="1.0" encoding="UTF-8" standalone="no"?>
<svg
   id="Layer_1"
   data-name="Layer 1"
   viewBox="0 0 766.03105 254.11342"
   version="1.1"
   sodipodi:docname="gamestar-logo.svg"
   inkscape:version="1.2.1 (9c6d41e410, 2022-07-14)"
   width="766.03107"
   height="254.11342"
   xmlns:inkscape="http://www.inkscape.org/namespaces/inkscape"
   xmlns:sodipodi="http://sodipodi.sourceforge.net/DTD/sodipodi-0.dtd"
   xmlns="http://www.w3.org/2000/svg"
   xmlns:svg="http://www.w3.org/2000/svg"
   xmlns:rdf="http://www.w3.org/1999/02/22-rdf-syntax-ns#"
   xmlns:cc="http://creativecommons.org/ns#"
   xmlns:dc="http://purl.org/dc/elements/1.1/">
  <defs
     id="defs33" />
  <sodipodi:namedview
     id="namedview31"
     pagecolor="#ffffff"
     bordercolor="#000000"
     borderopacity="0.25"
     inkscape:showpageshadow="2"
     inkscape:pageopacity="0.0"
     inkscape:pagecheckerboard="0"
     inkscape:deskcolor="#d1d1d1"
     showgrid="false"
     inkscape:zoom="0.75830602"
     inkscape:cx="268.36131"
     inkscape:cy="155.61"
     inkscape:window-width="2160"
     inkscape:window-height="1346"
     inkscape:window-x="-11"
     inkscape:window-y="-11"
     inkscape:window-maximized="1"
     inkscape:current-layer="Layer_1" />
  <title
     id="title2">game-logo</title>
  <path
     d="m 471.345,253.6 h -10.31 V 84.45 l -1.59,-0.24 q -7.68,21.12 -15.38,42.26 -21.82,59.8 -43.67,119.59 c -1.48,4 -1.94,8.19 -8.68,8.05 -7,-0.14 -6.7,-4.86 -8,-8.7 Q 356.825,167.7 330.035,89.84 a 8.7,8.7 0 0 0 -2.9,-4.43 v 167.86 h -10.46 V 34.01 c 4.6,-1.88 5.64,1.08 6.81,4.5 q 14.91,43.5 30,86.95 17.91,52 35.77,104 c 0.69,2 1.49,3.92 2.86,7.5 4.48,-12.32 8.37,-23.06 12.28,-33.8 q 29.58,-81.46 59.24,-162.86 c 1.18,-3.23 1.17,-8.15 7.71,-6.42 z"
     id="path4" />
  <path
     d="m 101.465,150.12 h -44.57 v -11.25 h 56 v 11.48 c 0,22 0.08,43.91 0,65.87 -0.09,22.37 -15.67,37.39 -38.87,37.56 -12.15,0.09 -24.3,0.18 -36.44,0 -22.12,-0.34 -37.55,-15.49 -37.55,-36.79 q -0.07,-72.53 0,-145 c 0,-21 14.29,-35.86 35.9,-36.74 a 415.47,415.47 0 0 1 41.91,0.3 c 19.76,1.15 33.04,13.9 34.65,33.15 0.86,10.33 0.15,20.78 0.15,31.67 h -11.67 c 0,-8.32 -0.13,-16.68 0,-25 0.35,-19.64 -9.08,-29.1 -29.31,-29.18 -11.46,0 -22.92,-0.12 -34.37,0 -15.09,0.18 -25.83,9.87 -25.91,24.46 q -0.39,73.84 0,147.69 c 0.07,13.81 9.8,23.58 24.06,24.22 14.26,0.64 28.88,0.58 43.3,0 a 23.68,23.68 0 0 0 22.52,-22.94 c 0.68,-22.84 0.2,-45.66 0.2,-69.5 z"
     id="path6" />
  <path
     d="m 530.525,242.61 h 100.74 v 10.79 h -112 V 35.76 h 111.9 v 10.5 h -100.62 v 87.06 h 44.31 v 11.38 h -44.33 z"
     id="path8" />
  <path
     d="m 158.265,252.83 55.59,-220.64 h 1.5 q 27.78,110.2 55.57,220.4 c -10.57,2.88 -11.28,2.29 -13.71,-7.38 q -20.12,-80 -40.44,-159.9 c -0.42,-1.66 -1.13,-3.25 -2.39,-6.8 -3.36,12.92 -6.32,24 -9.13,35.13 q -16.72,66.06 -33.37,132.17 c -2.25,8.89 -3.09,9.32 -13.62,7.02 z"
     id="path10" />
  <path
     d="m 740.445,81.24 -20.59,-34.32 c -7.19,11.83 -13.82,22.85 -20.5,33.78 -5.63,-0.8 -5.23,-3.41 -3.09,-6.93 5.77,-9.54 11.45,-19.14 17.77,-29.67 h -40 c -2.58,-5.45 -0.73,-7 4.23,-6.91 11.44,0.14 22.88,0 35.63,0 -6.86,-11.66 -13.18,-22.49 -19.86,-33.96 l 5,-3.23 c 7,11.5 13.64,22.48 20.81,34.3 6.28,-10.59 11.94,-20.18 17.68,-29.73 1.81,-3 3.8,-6.06 7.9,-1.22 l -19.92,33.94 c 12.64,0 24,0 35.37,0 5.24,0 5.24,0.12 5.13,6.34 h -40.61 c 7,12 13.46,22.85 20.2,34.3 z"
     id="path12" />
  <metadata
     id="metadata325">
    <rdf:RDF>
      <cc:Work
         rdf:about="">
        <dc:title>game-logo</dc:title>
      </cc:Work>
    </rdf:RDF>
  </metadata>
</svg>
