<?xml version="1.0" encoding="UTF-8" standalone="no"?>
<svg
   width="1495.5204"
   height="309.00522"
   viewBox="0 0 1495.5204 309.00522"
   fill="none"
   version="1.1"
   id="svg239489"
   sodipodi:docname="s4s-logo.svg"
   inkscape:version="1.2.1 (9c6d41e410, 2022-07-14)"
   xmlns:inkscape="http://www.inkscape.org/namespaces/inkscape"
   xmlns:sodipodi="http://sodipodi.sourceforge.net/DTD/sodipodi-0.dtd"
   xmlns="http://www.w3.org/2000/svg"
   xmlns:svg="http://www.w3.org/2000/svg">
  <defs
     id="defs239493" />
  <sodipodi:namedview
     id="namedview239491"
     pagecolor="#ffffff"
     bordercolor="#000000"
     borderopacity="0.25"
     inkscape:showpageshadow="2"
     inkscape:pageopacity="0.0"
     inkscape:pagecheckerboard="0"
     inkscape:deskcolor="#d1d1d1"
     showgrid="false"
     inkscape:zoom="0.67836261"
     inkscape:cx="487.20256"
     inkscape:cy="-221.12068"
     inkscape:window-width="2160"
     inkscape:window-height="1346"
     inkscape:window-x="-11"
     inkscape:window-y="-11"
     inkscape:window-maximized="1"
     inkscape:current-layer="svg239489" />
  <g
     id="g240172"
     inkscape:label="livre"
     transform="matrix(2.5330642,0,0,2.5330642,-2.0271935,-1.0772945)">
    <path
       d="M 44.3844,8.95834 C 29.745,7.22563 14.9053,8.54333 0.800293,12.8285 v 98.9725 c 0,0 23.727107,-7.572 48.388907,-4.739 28.2099,3.269 37.6788,15.342 37.6788,15.342 V 26.0175 c 0,0 -14.2706,-13.7736 -42.4836,-17.05916 z"
       fill="#ab5b5b"
       id="path239441" />
    <path
       d="M 105.327,26.0176 H 86.8271 v 96.3964 h 18.4999 z"
       fill="#ab5b5b"
       id="path239443" />
    <path
       d="M 52.1368,1.12427 C 26.5841,-1.70798 8.16821,4.98187 8.16821,4.98187 V 102.416 c 0,0 18.41589,-6.6991 43.96859,-3.8669 29.2196,3.2419 43.9561,16.9619 43.9561,16.9619 V 18.1396 c 0,0 -14.749,-13.78295 -43.9561,-17.01533 z"
       fill="#e7d8cb"
       id="path239445" />
    <path
       d="m 147.217,8.95866 c 14.632,-1.71304 29.46,-0.38157 43.553,3.91074 v 98.9316 c 0,0 -23.737,-7.571 -48.389,-4.739 -28.213,3.245 -37.107,15.318 -37.107,15.318 l -0.572,-96.3966 c 0,0 14.302,-13.7392 42.515,-17.02474 z"
       fill="#ab5b5b"
       id="path239447" />
    <path
       d="m 140.049,1.124 c 25.541,-2.83225 43.96,3.86698 43.96,3.86698 V 102.416 c 0,0 -18.419,-6.6994 -43.96,-3.8671 C 110.83,101.791 96.0808,115.511 96.0808,115.511 V 18.1394 c 0,0 14.7492,-13.78302 43.9682,-17.0154 z"
       fill="#e7d8cb"
       id="path239449" />
    <path
       d="M 156.842,0.477051 C 173.298,1.05851 184.04,4.97238 184.04,4.97238 V 102.397 c 0,0 -18.416,-6.7021 -43.957,-3.8699 -7.363,0.7812 -14.616,2.3889 -21.62,4.7919"
       fill="#dacabe"
       id="path239451" />
    <path
       d="m 38.0979,97.8582 c 4.6988,-0.0558 9.3967,0.1749 14.0674,0.6908 29.2197,3.242 43.9561,16.962 43.9561,16.962 V 18.1395 c 0,0 -9.5971,-8.98124 -28.707,-14.14243"
       fill="#dacabe"
       id="path239453" />
  </g>
  <g
     id="g239992"
     inkscape:label="texte"
     transform="matrix(2.5330642,0,0,2.5330642,-2.0271935,-1.0772945)">
    <path
       d="m 271.134,33.9892 c 0,3.3655 -0.864,6.299 -2.592,8.8003 -1.683,2.5014 -4.071,4.457 -7.163,5.8669 -3.093,1.3644 -6.777,2.0466 -11.052,2.0466 -4.23,0 -7.936,-0.7049 -11.12,-2.1148 -3.138,-1.4554 -5.639,-3.5019 -7.504,-6.1398 -1.819,-2.6378 -2.888,-5.7531 -3.206,-9.346 h 13.03 c 0.091,2.3194 0.864,4.1614 2.319,5.5258 1.501,1.3643 3.57,2.0465 6.208,2.0465 1.501,0 2.797,-0.1819 3.889,-0.5457 1.091,-0.3639 1.933,-0.9096 2.524,-1.6373 0.636,-0.7277 0.955,-1.5918 0.955,-2.5923 0,-1.046 -0.478,-1.9329 -1.433,-2.6606 -0.909,-0.7731 -2.092,-1.2961 -3.547,-1.569 l -8.937,-1.7055 c -1.956,-0.3638 -3.729,-0.9323 -5.321,-1.7055 -1.592,-0.7731 -2.979,-1.7282 -4.161,-2.8652 -1.137,-1.1825 -2.024,-2.5469 -2.661,-4.0932 -0.591,-1.5918 -0.887,-3.3655 -0.887,-5.3211 0,-3.0471 0.819,-5.7304 2.456,-8.04987 1.637,-2.36494 3.889,-4.20686 6.754,-5.52577 2.865,-1.31891 6.14,-1.978367 9.823,-1.978367 3.912,0 7.368,0.704937 10.37,2.114807 3.047,1.40986 5.48,3.41097 7.299,6.0033 1.865,2.5469 2.911,5.594 3.138,9.1414 h -13.03 c -0.091,-1.5008 -0.477,-2.797 -1.159,-3.8885 -0.683,-1.0915 -1.569,-1.9329 -2.661,-2.5241 -1.091,-0.5913 -2.365,-0.8869 -3.82,-0.8869 -1.274,0 -2.365,0.2047 -3.275,0.614 -0.909,0.4093 -1.614,0.9778 -2.114,1.7055 -0.501,0.6822 -0.751,1.4781 -0.751,2.3877 0,0.7276 0.205,1.3644 0.614,1.9101 0.455,0.5003 1.046,0.9323 1.774,1.2962 0.727,0.3183 1.523,0.5685 2.387,0.7504 l 9.483,1.8419 c 4.366,0.8641 7.686,2.3877 9.96,4.5707 2.274,2.1376 3.411,4.98 3.411,8.5274 z"
       fill="#ffffff"
       id="path239455" />
    <path
       d="m 301.748,38.5599 v 10.1647 c -1.273,0.7277 -2.57,1.228 -3.889,1.5009 -1.318,0.3183 -2.797,0.4775 -4.434,0.4775 -2.729,0 -5.071,-0.523 -7.026,-1.5691 -1.956,-1.046 -3.457,-2.5695 -4.503,-4.5707 -1.046,-2.0011 -1.569,-4.3887 -1.569,-7.163 V 23.4834 h -6.822 V 13.3188 h 6.822 V 2.5401 h 11.666 v 10.7787 h 10.028 v 10.1646 h -10.028 v 11.188 c 0,1.7737 0.386,3.0926 1.159,3.9568 0.773,0.8186 1.956,1.2279 3.548,1.2279 0.955,0 1.864,-0.1137 2.728,-0.3411 0.91,-0.2274 1.683,-0.5457 2.32,-0.9551 z"
       fill="#ffffff"
       id="path239457" />
    <path
       d="M 328.995,34.2621 V 13.3188 h 11.666 v 36.702 H 329.95 v -3.9567 c -1,1.3644 -2.433,2.4786 -4.298,3.3427 -1.819,0.8641 -3.797,1.2962 -5.935,1.2962 -2.41,0 -4.593,-0.5003 -6.549,-1.5008 -1.955,-1.0461 -3.502,-2.6151 -4.639,-4.7072 -1.091,-2.1375 -1.637,-4.8208 -1.637,-8.0499 V 13.3188 h 11.666 v 20.9433 c 0,2.0011 0.454,3.5019 1.364,4.5025 0.955,1.0005 2.251,1.5008 3.889,1.5008 0.773,0 1.546,-0.2046 2.319,-0.6139 0.819,-0.4548 1.501,-1.1143 2.047,-1.9784 0.545,-0.9096 0.818,-2.0466 0.818,-3.411 z"
       fill="#ffffff"
       id="path239459" />
    <path
       d="m 345.952,31.6698 c 0,-3.5474 0.682,-6.7537 2.047,-9.619 1.364,-2.9107 3.274,-5.2074 5.73,-6.8901 2.456,-1.6828 5.321,-2.5241 8.596,-2.5241 1.91,0 3.683,0.3411 5.321,1.0233 1.682,0.6822 3.229,1.7054 4.639,3.0698 V 1.03927 H 383.95 V 50.0208 h -10.71 v -4.1614 c -1.501,1.5463 -3.161,2.7515 -4.98,3.6156 -1.819,0.8187 -3.798,1.228 -5.935,1.228 -3.275,0 -6.14,-0.8414 -8.596,-2.5241 -2.456,-1.7283 -4.366,-4.025 -5.73,-6.8902 -1.365,-2.9107 -2.047,-6.117 -2.047,-9.6189 z m 12.143,0 c 0,2.8652 0.728,5.0027 2.183,6.4126 1.455,1.4099 3.07,2.1148 4.844,2.1148 1.228,0 2.365,-0.3184 3.411,-0.9551 1.091,-0.6367 1.955,-1.5918 2.592,-2.8652 0.682,-1.2734 1.023,-2.8652 1.023,-4.7753 0,-1.9557 -0.341,-3.5474 -1.023,-4.7754 -0.682,-1.2734 -1.569,-2.2058 -2.661,-2.797 -1.046,-0.5912 -2.16,-0.8868 -3.342,-0.8868 -1.774,0 -3.389,0.6821 -4.844,2.0465 -1.455,1.3644 -2.183,3.5247 -2.183,6.4809 z"
       fill="#ffffff"
       id="path239461" />
    <path
       d="m 408.152,50.6348 c -3.775,0 -7.095,-0.7959 -9.96,-2.3877 -2.82,-1.5918 -5.025,-3.8203 -6.617,-6.6855 -1.547,-2.8652 -2.32,-6.1852 -2.32,-9.96 0,-3.6839 0.796,-6.9357 2.388,-9.7554 1.637,-2.8652 3.866,-5.1165 6.685,-6.7537 2.866,-1.6373 6.117,-2.4559 9.756,-2.4559 3.047,0 5.799,0.5685 8.254,1.7055 2.456,1.1369 4.503,2.7287 6.14,4.7753 1.683,2.0011 2.865,4.3433 3.548,7.0266 0.682,2.6378 0.75,5.4576 0.204,8.4592 h -29.948 v -7.2995 h 17.464 c -0.045,-1.8646 -0.614,-3.3427 -1.705,-4.4342 -1.092,-1.0915 -2.502,-1.6373 -4.23,-1.6373 -1.501,0 -2.752,0.3866 -3.752,1.1597 -0.955,0.7277 -1.683,1.8647 -2.183,3.411 -0.5,1.5463 -0.751,3.5019 -0.751,5.8669 0,2.183 0.251,4.0249 0.751,5.5258 0.5,1.4553 1.251,2.5468 2.251,3.2745 1.001,0.7277 2.251,1.0915 3.752,1.0915 1.637,0 3.002,-0.3411 4.093,-1.0233 1.092,-0.6822 1.888,-1.6827 2.388,-3.0016 h 11.666 c -1.137,4.1841 -3.252,7.4131 -6.345,9.6871 -3.092,2.274 -6.935,3.411 -11.529,3.411 z"
       fill="#ffffff"
       id="path239463" />
    <path
       d="M 443.546,30.7147 V 50.0208 H 431.88 v -36.702 h 10.711 v 4.4342 c 1.455,-1.5918 3.047,-2.8425 4.775,-3.752 1.774,-0.9096 3.82,-1.3644 6.14,-1.3644 3.638,0 6.594,1.1824 8.868,3.5474 2.32,2.3649 3.479,5.7759 3.479,10.2329 V 50.0208 H 454.188 V 30.3054 c 0,-2.3195 -0.432,-4.0932 -1.296,-5.3211 -0.819,-1.228 -2.115,-1.8419 -3.889,-1.8419 -0.955,0 -1.864,0.2501 -2.729,0.7504 -0.818,0.5002 -1.478,1.2961 -1.978,2.3876 -0.5,1.0916 -0.75,2.5696 -0.75,4.4343 z"
       fill="#ffffff"
       id="path239465" />
    <path
       d="m 497.479,38.5599 v 10.1647 c -1.273,0.7277 -2.57,1.228 -3.889,1.5009 -1.318,0.3183 -2.797,0.4775 -4.434,0.4775 -2.729,0 -5.071,-0.523 -7.026,-1.5691 -1.956,-1.046 -3.457,-2.5695 -4.503,-4.5707 -1.046,-2.0011 -1.569,-4.3887 -1.569,-7.163 V 23.4834 h -6.822 V 13.3188 h 6.822 V 2.5401 h 11.666 v 10.7787 h 10.028 v 10.1646 h -10.028 v 11.188 c 0,1.7737 0.386,3.0926 1.159,3.9568 0.773,0.8186 1.956,1.2279 3.548,1.2279 0.955,0 1.864,-0.1137 2.729,-0.3411 0.909,-0.2274 1.682,-0.5457 2.319,-0.9551 z"
       fill="#ffffff"
       id="path239467" />
    <path
       d="m 535.172,37.5367 c 0,4.0476 -1.456,7.2539 -4.366,9.6189 -2.911,2.3649 -7.141,3.5474 -12.689,3.5474 -5.503,0 -9.755,-1.2052 -12.757,-3.6156 -3.002,-2.4559 -4.684,-5.7987 -5.048,-10.0283 H 511.5 c 0,1.5463 0.636,2.7743 1.91,3.6839 1.273,0.9096 2.911,1.3643 4.912,1.3643 1.319,0 2.478,-0.1819 3.479,-0.5457 1.046,-0.3638 1.569,-1.0233 1.569,-1.9784 0,-0.8186 -0.319,-1.4326 -0.955,-1.8419 -0.591,-0.4093 -1.524,-0.7277 -2.797,-0.9551 l -7.231,-1.2961 c -3.184,-0.5913 -5.731,-1.7965 -7.641,-3.6157 -1.91,-1.8191 -2.865,-4.2068 -2.865,-7.163 0,-2.3649 0.636,-4.457 1.91,-6.2762 1.273,-1.8192 3.07,-3.229 5.389,-4.2296 2.365,-1.046 5.139,-1.569 8.323,-1.569 3.229,0 6.072,0.5457 8.527,1.6372 2.456,1.0461 4.412,2.5696 5.867,4.5707 1.501,2.0011 2.365,4.3661 2.593,7.0949 h -11.188 c -0.137,-1.4554 -0.728,-2.5924 -1.774,-3.411 -1.046,-0.8641 -2.365,-1.2962 -3.957,-1.2962 -1.364,0 -2.456,0.2047 -3.274,0.614 -0.819,0.3638 -1.228,0.9551 -1.228,1.7737 0,0.7731 0.295,1.3189 0.887,1.6373 0.591,0.3183 1.455,0.5912 2.592,0.8186 l 7.777,1.4326 c 3.547,0.6367 6.231,1.8192 8.05,3.5474 1.864,1.6828 2.797,3.843 2.797,6.4809 z"
       fill="#ffffff"
       id="path239469" />
    <path
       d="m 267.655,106.643 h -6.617 v 8.186 h -11.666 v -8.186 h -21.694 v -8.8002 l 23.809,-29.1297 h 9.551 v 27.6971 h 6.617 z M 240.367,96.4102 h 9.005 V 85.0857 Z"
       fill="#eed4f1"
       id="path239471" />
    <path
       d="m 327.162,98.7978 c 0,3.3652 -0.864,6.2992 -2.593,8.8002 -1.682,2.502 -4.07,4.457 -7.163,5.867 -3.092,1.364 -6.776,2.047 -11.051,2.047 -4.23,0 -7.936,-0.705 -11.12,-2.115 -3.138,-1.456 -5.639,-3.502 -7.504,-6.14 -1.819,-2.638 -2.888,-5.753 -3.206,-9.346 h 13.03 c 0.091,2.319 0.864,4.161 2.319,5.526 1.501,1.364 3.57,2.046 6.208,2.046 1.501,0 2.797,-0.182 3.889,-0.545 1.091,-0.364 1.932,-0.91 2.524,-1.638 0.636,-0.727 0.955,-1.591 0.955,-2.592 0,-1.0461 -0.478,-1.9329 -1.433,-2.6606 -0.909,-0.7731 -2.092,-1.2962 -3.547,-1.569 l -8.937,-1.7055 c -1.956,-0.3638 -3.729,-0.9323 -5.321,-1.7055 -1.592,-0.7732 -2.979,-1.7282 -4.162,-2.8652 -1.137,-1.1825 -2.023,-2.5469 -2.66,-4.0932 -0.591,-1.5918 -0.887,-3.3655 -0.887,-5.3211 0,-3.0471 0.819,-5.7304 2.456,-8.0499 1.637,-2.3649 3.888,-4.2068 6.754,-5.5258 2.865,-1.3189 6.139,-1.9783 9.823,-1.9783 3.912,0 7.368,0.7049 10.37,2.1148 3.047,1.4099 5.48,3.411 7.299,6.0033 1.865,2.5469 2.911,5.594 3.138,9.1414 h -13.03 c -0.091,-1.5008 -0.477,-2.797 -1.159,-3.8885 -0.683,-1.0915 -1.569,-1.9329 -2.661,-2.5241 -1.092,-0.5913 -2.365,-0.8869 -3.82,-0.8869 -1.274,0 -2.365,0.2047 -3.275,0.614 -0.909,0.4093 -1.614,0.9778 -2.115,1.7055 -0.5,0.6822 -0.75,1.4781 -0.75,2.3877 0,0.7276 0.205,1.3643 0.614,1.9101 0.455,0.5003 1.046,0.9323 1.774,1.2962 0.727,0.3183 1.523,0.5685 2.387,0.7504 l 9.483,1.8419 c 4.366,0.8641 7.686,2.3877 9.96,4.5707 2.274,2.1375 3.411,4.98 3.411,8.5274 z"
       fill="#eed4f1"
       id="path239473" />
    <path
       d="m 357.776,103.369 v 10.164 c -1.274,0.728 -2.57,1.228 -3.889,1.501 -1.319,0.318 -2.797,0.478 -4.434,0.478 -2.729,0 -5.071,-0.523 -7.027,-1.569 -1.955,-1.046 -3.456,-2.57 -4.502,-4.571 -1.046,-2.001 -1.569,-4.389 -1.569,-7.163 V 88.292 h -6.822 V 78.1274 h 6.822 V 67.3487 h 11.665 v 10.7787 h 10.029 V 88.292 H 348.02 V 99.48 c 0,1.774 0.387,3.093 1.16,3.957 0.773,0.818 1.956,1.228 3.548,1.228 0.955,0 1.864,-0.114 2.728,-0.341 0.91,-0.228 1.683,-0.546 2.32,-0.955 z"
       fill="#eed4f1"
       id="path239475" />
    <path
       d="M 385.023,99.0707 V 78.1274 h 11.666 v 36.7016 h -10.711 v -3.956 c -1,1.364 -2.433,2.478 -4.298,3.342 -1.819,0.865 -3.797,1.297 -5.935,1.297 -2.41,0 -4.593,-0.501 -6.549,-1.501 -1.955,-1.046 -3.502,-2.615 -4.639,-4.707 -1.091,-2.138 -1.637,-4.821 -1.637,-8.05 V 78.1274 h 11.665 v 20.9433 c 0,2.0013 0.455,3.5023 1.365,4.5023 0.955,1.001 2.251,1.501 3.888,1.501 0.774,0 1.547,-0.205 2.32,-0.614 0.818,-0.455 1.501,-1.114 2.046,-1.978 0.546,-0.91 0.819,-2.047 0.819,-3.4113 z"
       fill="#eed4f1"
       id="path239477" />
    <path
       d="m 401.98,96.4784 c 0,-3.5474 0.682,-6.7537 2.046,-9.619 1.365,-2.9107 3.275,-5.2074 5.731,-6.8901 2.456,-1.6828 5.321,-2.5241 8.596,-2.5241 1.91,0 3.683,0.3411 5.321,1.0232 1.682,0.6822 3.229,1.7055 4.639,3.0699 V 65.8479 h 11.665 v 48.9811 h -10.71 v -4.161 c -1.501,1.546 -3.161,2.752 -4.98,3.616 -1.82,0.818 -3.798,1.228 -5.935,1.228 -3.275,0 -6.14,-0.842 -8.596,-2.525 -2.456,-1.728 -4.366,-4.024 -5.731,-6.89 -1.364,-2.91 -2.046,-6.1167 -2.046,-9.6186 z m 12.143,0 c 0,2.8652 0.728,5.0026 2.183,6.4126 1.455,1.41 3.07,2.115 4.844,2.115 1.227,0 2.364,-0.319 3.41,-0.955 1.092,-0.637 1.956,-1.592 2.593,-2.865 0.682,-1.2739 1.023,-2.8657 1.023,-4.7758 0,-1.9557 -0.341,-3.5475 -1.023,-4.7754 -0.682,-1.2734 -1.569,-2.2058 -2.661,-2.797 -1.046,-0.5912 -2.16,-0.8869 -3.342,-0.8869 -1.774,0 -3.389,0.6822 -4.844,2.0466 -1.455,1.3644 -2.183,3.5247 -2.183,6.4809 z"
       fill="#eed4f1"
       id="path239479" />
    <path
       d="m 464.18,115.443 c -3.775,0 -7.095,-0.796 -9.96,-2.387 -2.82,-1.592 -5.026,-3.821 -6.617,-6.686 -1.547,-2.865 -2.32,-6.185 -2.32,-9.9598 0,-3.6839 0.796,-6.9357 2.388,-9.7554 1.637,-2.8652 3.866,-5.1165 6.685,-6.7537 2.866,-1.6373 6.117,-2.4559 9.756,-2.4559 3.047,0 5.798,0.5685 8.254,1.7055 2.456,1.1369 4.503,2.7287 6.14,4.7753 1.683,2.0011 2.865,4.3433 3.547,7.0266 0.683,2.6378 0.751,5.4576 0.205,8.4592 H 452.31 v -7.2995 h 17.464 c -0.046,-1.8646 -0.614,-3.3427 -1.706,-4.4342 -1.091,-1.0915 -2.501,-1.6373 -4.229,-1.6373 -1.501,0 -2.752,0.3866 -3.752,1.1597 -0.955,0.7277 -1.683,1.8647 -2.183,3.411 -0.501,1.5463 -0.751,3.5019 -0.751,5.8669 0,2.183 0.25,4.0246 0.751,5.5256 0.5,1.455 1.25,2.547 2.251,3.275 1.001,0.727 2.251,1.091 3.752,1.091 1.637,0 3.002,-0.341 4.093,-1.023 1.092,-0.682 1.888,-1.683 2.388,-3.002 h 11.665 c -1.137,4.184 -3.251,7.413 -6.344,9.687 -3.093,2.274 -6.936,3.411 -11.529,3.411 z"
       fill="#eed4f1"
       id="path239481" />
    <path
       d="M 499.574,95.5233 V 114.829 H 487.908 V 78.1274 h 10.71 v 4.4342 c 1.456,-1.5918 3.048,-2.8425 4.776,-3.752 1.774,-0.9096 3.82,-1.3644 6.14,-1.3644 3.638,0 6.594,1.1824 8.868,3.5474 2.32,2.3649 3.479,5.7759 3.479,10.2329 V 114.829 H 510.216 V 95.114 c 0,-2.3195 -0.432,-4.0932 -1.296,-5.3211 -0.819,-1.228 -2.115,-1.842 -3.889,-1.842 -0.955,0 -1.865,0.2502 -2.729,0.7505 -0.818,0.5002 -1.478,1.2961 -1.978,2.3876 -0.5,1.0915 -0.75,2.5696 -0.75,4.4343 z"
       fill="#eed4f1"
       id="path239483" />
    <path
       d="m 553.507,103.369 v 10.164 c -1.274,0.728 -2.57,1.228 -3.889,1.501 -1.319,0.318 -2.797,0.478 -4.434,0.478 -2.729,0 -5.071,-0.523 -7.027,-1.569 -1.955,-1.046 -3.456,-2.57 -4.502,-4.571 -1.046,-2.001 -1.569,-4.389 -1.569,-7.163 V 88.292 h -6.822 V 78.1274 h 6.822 V 67.3487 h 11.665 V 78.1274 H 553.78 V 88.292 H 543.751 V 99.48 c 0,1.774 0.387,3.093 1.16,3.957 0.773,0.818 1.956,1.228 3.548,1.228 0.955,0 1.864,-0.114 2.728,-0.341 0.91,-0.228 1.683,-0.546 2.32,-0.955 z"
       fill="#eed4f1"
       id="path239485" />
    <path
       d="m 591.2,102.345 c 0,4.048 -1.456,7.254 -4.366,9.619 -2.911,2.365 -7.141,3.548 -12.689,3.548 -5.503,0 -9.756,-1.206 -12.757,-3.616 -3.002,-2.456 -4.685,-5.799 -5.048,-10.028 h 11.188 c 0,1.546 0.636,2.774 1.91,3.684 1.273,0.909 2.91,1.364 4.911,1.364 1.319,0 2.479,-0.182 3.48,-0.546 1.046,-0.364 1.569,-1.023 1.569,-1.978 0,-0.819 -0.319,-1.433 -0.955,-1.842 -0.592,-0.409 -1.524,-0.728 -2.797,-0.955 l -7.232,-1.296 c -3.183,-0.5916 -5.73,-1.7968 -7.64,-3.616 -1.91,-1.8192 -2.865,-4.2068 -2.865,-7.163 0,-2.3649 0.636,-4.457 1.91,-6.2762 1.273,-1.8192 3.07,-3.229 5.389,-4.2296 2.365,-1.046 5.139,-1.569 8.323,-1.569 3.229,0 6.071,0.5457 8.527,1.6372 2.456,1.0461 4.412,2.5696 5.867,4.5707 1.501,2.0011 2.365,4.3661 2.592,7.0948 h -11.188 c -0.136,-1.4553 -0.727,-2.5923 -1.773,-3.4109 -1.046,-0.8641 -2.365,-1.2962 -3.957,-1.2962 -1.364,0 -2.456,0.2047 -3.274,0.614 -0.819,0.3638 -1.228,0.9551 -1.228,1.7737 0,0.7731 0.295,1.3189 0.886,1.6373 0.592,0.3183 1.456,0.5912 2.593,0.8186 l 7.777,1.4326 c 3.547,0.6367 6.23,1.8192 8.05,3.5474 1.864,1.6827 2.797,3.843 2.797,6.4806 z"
       fill="#eed4f1"
       id="path239487" />
  </g>
</svg>
