<?xml version="1.0" encoding="UTF-8" standalone="no"?>
<!-- Generator: Adobe Illustrator 22.1.0, SVG Export Plug-In . SVG Version: 6.00 Build 0)  -->

<svg
   version="1.1"
   id="Logo"
   x="0px"
   y="0px"
   viewBox="0 0 500 154"
   xml:space="preserve"
   sodipodi:docname="sgdf-logo.svg"
   width="500"
   height="154"
   inkscape:version="1.2.1 (9c6d41e410, 2022-07-14)"
   xmlns:inkscape="http://www.inkscape.org/namespaces/inkscape"
   xmlns:sodipodi="http://sodipodi.sourceforge.net/DTD/sodipodi-0.dtd"
   xmlns="http://www.w3.org/2000/svg"
   xmlns:svg="http://www.w3.org/2000/svg"><defs
   id="defs11" /><sodipodi:namedview
   id="namedview9"
   pagecolor="#ffffff"
   bordercolor="#000000"
   borderopacity="0.25"
   inkscape:showpageshadow="2"
   inkscape:pageopacity="0.0"
   inkscape:pagecheckerboard="0"
   inkscape:deskcolor="#d1d1d1"
   showgrid="false"
   inkscape:zoom="0.92803774"
   inkscape:cx="206.34937"
   inkscape:cy="127.15"
   inkscape:window-width="2160"
   inkscape:window-height="1346"
   inkscape:window-x="-11"
   inkscape:window-y="-11"
   inkscape:window-maximized="1"
   inkscape:current-layer="Logo" />
<style
   type="text/css"
   id="style2">
	.st0{fill:#00384F;}
</style>
<path
   id="LOGO"
   class="st0"
   d="M 236.7,153.7 H 0 V 0.80000005 H 236.7 Z M 84.5,65.1 c 4.8,4.6 9.4,8.1 11.6,9.6 4.6,-6 19.1,-23.6 19.8,-24.4 l 1.1,-1.3 22,23.7 0.4,0.3 9,-8.7 -16.2,-20.6 -15.2,-16.5 -7.4,7.4 z m 32.5,11.8 -9.6,10.3 c 2,1.9 6.4,6.6 9.5,9.1 2,-1.8 6.6,-6.7 9.3,-9.8 z m -5.9,40.3 -37.3,-36.9 -32.5,37.2 10.9,9.1 21.5,-23.7 26.299997,24.5 z m 72.8,9.5 c 2,-1.4 6.9,-4.9 11.5,-8.5 -2.6,-3.1 -9.9,-11.8 -15.3,-17.5 -4,-4.2 -15.6,-17 -19.1,-20.9 -9.2,8.6 -31.8,31.3 -37.7,36.8 3.2,3.7 7.6,8.5 9.6,10.7 6.8,-6.3 25.1,-25.4 25.3,-25.6 l 1.1,-1 c 0,0 5.9,6.3 8,8.5 6.9,7.4 11.1,12 16.6,17.5" />
<path
   id="SCOUTS_GUIDES"
   class="st0"
   d="m 261.6,35.2 8.7,-5.1 c 1.6,3.7 4.3,6.1 9.3,6.1 4.8,0 6,-1.9 6,-3.6 0,-2.7 -2.5,-3.8 -9.2,-5.6 -6.6,-1.8 -13,-5 -13,-13.5 0,-8.4999999 7.2,-13.5 14.8,-13.5 7.3,0 13,3.5000001 16.2,9.9999998 L 285.9,15 c -1.5,-3.2 -3.6,-5.1000002 -7.6,-5.1000002 -3.2,0 -4.7,1.6000002 -4.7,3.3000002 0,2 1.1,3.4 8,5.5 6.7,2 14.2,4.4 14.2,13.7 0,8.5 -6.8,13.6 -16.4,13.6 -9.4,0.1 -15.3,-4.3 -17.8,-10.8 m 37,-12.1 c 0,13 9.7,23 23,23 8.1,0 15.2,-4 19,-10.2 l -8.7,-5.1 c -1.9,3.4 -5.8,5.4 -10.2,5.4 -7.8,0 -12.9,-5.2 -12.9,-13.1 0,-7.9 5.1,-13.1000002 12.9,-13.1000002 4.5,0 8.3,2.0000002 10.2,5.4000002 l 8.7,-5.1 c -3.9,-6.2999999 -10.9,-10.2 -19,-10.2 -13.3,0 -23,10 -23,23 m 44.2,0 c 0,13 10.3,23 23,23 12.7,0 23,-10 23,-23 0,-13 -10.3,-23 -23,-23 -12.7,0 -23,10 -23,23 m 35.9,0 c 0,7.9 -5.7,13.1 -12.9,13.1 -7.2,0 -12.9,-5.2 -12.9,-13.1 0,-7.9 5.7,-13.1000002 12.9,-13.1000002 7.2,0 12.9,5.2000002 12.9,13.1000002 m 15.1,7.8 c 0,9.5 7.3,15.2 17.1,15.2 9.7,0 17.1,-5.7 17.1,-15.2 V 0.90000005 H 417.9 V 30.1 c 0,3.3 -1.6,6.2 -7,6.2 -5.4,0 -7,-2.8 -7,-6.2 V 1.0000001 H 393.8 V 30.9 M 464.9,1.0000001 H 432 V 10.7 h 11.4 v 34.5 h 10.1 V 10.7 h 11.4 z M 465.8,35.2 c 2.5,6.5 8.4,10.9 17.7,10.9 9.6,0 16.4,-5.1 16.4,-13.6 0,-9.4 -7.5,-11.7 -14.2,-13.7 -6.9,-2.1 -8,-3.5 -8,-5.5 0,-1.8 1.6,-3.3000002 4.7,-3.3000002 4,0 6.1,2.0000002 7.6,5.1000002 l 8.5,-5 c -3.2,-6.4999999 -8.9,-10 -16.2,-10 -7.6,0 -14.8,4.9 -14.8,13.5 0,8.5 6.4,11.6 13,13.5 6.6,1.8 9.2,2.9 9.2,5.6 0,1.7 -1.2,3.6 -6,3.6 -5,0 -7.7,-2.5 -9.3,-6.1 l -8.6,5 M 307.6,83.6 h -22.2 v 8.8 h 11.8 c -1.6,4.2 -5.4,6.8 -11.3,6.8 -8.6,0 -13.9,-5.5 -13.9,-13 0,-7.8 5.6,-13.3 13,-13.3 5,0 9,2.3 10.8,5.2 l 8.6,-4.9 c -3.7,-5.9 -10.9,-10.1 -19.3,-10.1 -13,0 -23.2,10.2 -23.2,23.1 0,12.7 10,22.9 23.9,22.9 12.4,0 21.8,-8.2 21.8,-21.7 z m 8.7,10.3 c 0,9.5 7.3,15.2 17.1,15.2 9.7,0 17.1,-5.7 17.1,-15.2 V 64 h -10.1 v 29.1 c 0,3.3 -1.6,6.2 -6.9,6.2 -5.4,0 -6.9,-2.8 -6.9,-6.2 V 64 H 316.5 V 93.9 M 371.4,64 h -10.1 v 44.2 h 10.1 z m 50.3,22.1 C 421.7,73.6 412.4,64 400.2,64 h -17.7 v 44.2 h 17.7 c 12.2,0 21.5,-9.6 21.5,-22.1 m -9.7,0 c 0,7.6 -4.8,12.4 -11.7,12.4 h -7.6 V 73.7 h 7.6 c 6.9,0 11.7,4.8 11.7,12.4 m 29.1,12.4 v -7.8 h 15.8 v -9.6 h -15.8 v -7.3 h 17.4 V 64.1 H 431 v 44.2 h 27.8 v -9.7 h -17.7 z m 24.8,-0.4 c 2.5,6.5 8.4,10.9 17.7,10.9 9.6,0 16.4,-5.1 16.4,-13.6 0,-9.3 -7.5,-11.7 -14.2,-13.7 -6.9,-2.1 -8,-3.5 -8,-5.5 0,-1.8 1.6,-3.3 4.7,-3.3 4,0 6.1,2 7.6,5.1 l 8.5,-5 c -3.2,-6.5 -8.9,-10 -16.2,-10 -7.6,0 -14.8,4.9 -14.8,13.5 0,8.5 6.4,11.6 13,13.5 6.6,1.8 9.2,2.9 9.2,5.6 0,1.7 -1.2,3.6 -6,3.6 -5,0 -7.7,-2.5 -9.3,-6.1 l -8.6,5" />
<path
   id="DE_FRANCE"
   class="st0"
   d="m 286.4,140.3 c 0,7.5 -5.4,13.6 -12.9,13.6 H 263 v -27.1 h 10.6 c 7.5,0 12.8,6 12.8,13.5 m -3.4,0 c 0,-5.7 -3.8,-10.2 -9.4,-10.2 h -7 v 20.3 h 7 c 5.6,0.1 9.4,-4.3 9.4,-10.1 m 11.4,10.2 v -8.6 h 11.4 v -3.4 h -11.4 v -8.3 h 12.4 v -3.4 h -16 v 27.1 H 307 v -3.4 z m 42.3,-20.3 v -3.4 h -15.6 v 27.1 h 3.6 v -11.5 h 11.5 V 139 h -11.5 v -8.8 z m 14.4,13.3 h -6.4 v 10.4 h -3.6 V 126.8 H 352 c 4.7,0 8.5,3.8 8.5,8.4 0,3.6 -2.4,6.7 -5.6,7.9 l 6.4,10.9 h -4 z m -6.4,-3.2 h 7.2 c 2.7,0 4.8,-2.3 4.8,-5.1 0,-2.8 -2.2,-5 -4.8,-5 h -7.2 z m 35.8,7.5 h -12.2 l -2.2,6.1 h -3.8 l 10.1,-27.1 h 4.1 l 10.1,27.1 h -3.8 z m -1.3,-3.3 -4.9,-13.4 -4.8,13.4 z m 27.4,-17.7 V 147 l -14,-20.2 h -2.9 v 27.1 h 3.6 v -20.3 l 14,20.3 h 2.9 v -27.1 z m 8,13.5 c 0,7.8 5.9,14.1 14.2,14.1 5,0 9.5,-2.6 11.7,-6.6 l -3.1,-1.8 c -1.6,2.9 -4.8,4.9 -8.6,4.9 -6.4,0 -10.6,-4.6 -10.6,-10.5 0,-6 4.3,-10.6 10.6,-10.6 3.7,0 7,1.9 8.6,4.9 l 3.1,-1.8 c -2.3,-4 -6.7,-6.6 -11.7,-6.6 -8.3,0 -14.2,6.2 -14.2,14 m 33.6,10.2 v -8.6 h 11.4 v -3.4 h -11.4 v -8.3 h 12.4 v -3.4 h -16 v 27.1 h 16.2 v -3.4 z" />
<polygon
   id="Croix_Potencée"
   class="st0"
   points="549.7,184.2 546.6,184.2 546.6,188.7 537.6,188.7 537.6,179.7 542.1,179.7 542.1,176.6 530.1,176.6 530.1,179.7 534.6,179.7 534.6,188.7 525.6,188.7 525.6,184.2 522.6,184.2 522.6,196.2 525.6,196.2 525.6,191.8 534.6,191.8 534.6,200.7 530.1,200.7 530.1,203.8 542.1,203.8 542.1,200.7 537.6,200.7 537.6,191.8 546.6,191.8 546.6,196.2 549.7,196.2 "
   transform="translate(-50,-49.9)" />
</svg>
