<svg viewBox="0 0 96 96" xmlns="http://www.w3.org/2000/svg" xmlns:xlink="http://www.w3.org/1999/xlink" id="Icons_FolderSearch" overflow="hidden"><path d="M31.885 32.811 74.455 32.811 74.455 28.167C74.455 26.2892 72.9328 24.767 71.055 24.767L45.577 24.767 36.234 18.567C35.6753 18.2053 35.03 17.9998 34.365 17.972L18.4 17.972C16.5222 17.972 15 19.4942 15 21.372L15 63.766 15.034 63.766 26.284 36.435C27.2891 34.2421 29.4728 32.8292 31.885 32.811Z"/><path d="M56.959 50.947C62.3832 45.5255 70.7671 44.4101 77.42 48.225L80.91 40.725C81.1382 40.2507 81.2546 39.7303 81.25 39.204 81.2598 37.4579 79.9453 35.9883 78.209 35.804L31.9 35.804C30.6561 35.8124 29.5298 36.5409 29.012 37.672L17.548 65.538 52.19 65.538C51.367 60.1925 53.1378 54.7745 56.959 50.947Z"/><path d="M63.323 57.311C61.171 59.4655 60.4301 62.6555 61.412 65.538L69.359 65.538 73.595 56.438C70.4156 54.1892 66.0789 54.5565 63.323 57.308Z"/><path d="M78.879 53.068C73.418 47.5991 64.5574 47.5926 59.0885 53.0537 54.0827 58.0522 53.5945 66.0004 57.951 71.574L55.758 73.767C54.5559 73.4414 53.2715 73.7823 52.389 74.661L46.025 81.025C44.6581 82.3919 44.6581 84.6081 46.025 85.975 47.3919 87.3419 49.6081 87.3419 50.975 85.975L57.339 79.611C58.2177 78.7285 58.5586 77.4441 58.233 76.242L60.433 74.042C66.5434 78.7734 75.3325 77.6555 80.0639 71.5451 84.3826 65.9678 83.8747 58.048 78.879 53.068ZM76.758 70.746C72.4623 75.0419 65.4975 75.042 61.2017 70.7464 56.9058 66.4507 56.9056 59.4859 61.2013 55.19 65.497 50.8941 72.4618 50.894 76.7577 55.1897 76.7578 55.1898 76.7579 55.1899 76.758 55.19 81.0469 59.4885 81.0469 66.4475 76.758 70.746Z"/></svg>