<svg viewBox="0 0 96 96" xmlns="http://www.w3.org/2000/svg" xmlns:xlink="http://www.w3.org/1999/xlink" id="Icons_Fish" overflow="hidden"><path d="M77 46C75.9 46 75 45.1 75 44 75 42.9 75.9 42 77 42 78.1 42 79 42.9 79 44 79 45.1 78.1 46 77 46ZM60 34C57.6 34 55 34.2 52.4 34.6L38 27C38 27 38.1 32.8 40.2 37.2 31.6 39.4 23.5 42 18 42L4 34C4 39.5 7 48 7 48 7 48 4 56.5 4 62L18 54C23.5 54 31.6 56.6 40.2 58.8 38.1 63.2 38 69 38 69L52.4 61.4C55 61.8 57.6 62 60 62 72.7 62 92 52.5 92 48 92 43.5 72.7 34 60 34Z"/></svg>