<svg viewBox="0 0 96 96" xmlns="http://www.w3.org/2000/svg" xmlns:xlink="http://www.w3.org/1999/xlink" id="Icons_CmdTerminal_LTR" overflow="hidden"><path d="M24.9 62.9 22.1 60.1 30.7 51.5 22.1 42.9 24.9 40.1 36.3 51.5Z"/><path d="M8 17 8 79 88 79 88 17 8 17ZM77 23C78.1 23 79 23.9 79 25 79 26.1 78.1 27 77 27 75.9 27 75 26.1 75 25 75 23.9 75.9 23 77 23ZM70 23C71.1 23 72 23.9 72 25 72 26.1 71.1 27 70 27 68.9 27 68 26.1 68 25 68 23.9 68.9 23 70 23ZM63 23C64.1 23 65 23.9 65 25 65 26.1 64.1 27 63 27 61.9 27 61 26.1 61 25 61 23.9 61.9 23 63 23ZM82 73 14 73 14 33 82 33 82 73Z"/><rect x="38" y="59" width="16" height="4"/></svg>