<svg viewBox="0 0 96 96" xmlns="http://www.w3.org/2000/svg" xmlns:xlink="http://www.w3.org/1999/xlink" id="Icons_Zipper" overflow="hidden"><rect x="64.306" y="4.535" width="4.001" height="8" transform="matrix(0.383618 -0.923492 0.923492 0.383618 32.988 66.494)"/><rect x="61.62" y="10.999" width="4.001" height="8" transform="matrix(0.383667 -0.923472 0.923472 0.383667 25.36 67.996)"/><rect x="58.935" y="17.463" width="4.001" height="8" transform="matrix(0.383667 -0.923472 0.923472 0.383667 17.735 69.5)"/><rect x="25.806" y="6.534" width="8.001" height="4.001" transform="matrix(0.923445 -0.383731 0.383731 0.923445 -0.993 12.091)"/><rect x="28.492" y="12.999" width="8.001" height="4.001" transform="matrix(0.923445 -0.383731 0.383731 0.923445 -3.268 13.617)"/><rect x="31.177" y="19.463" width="8" height="4.001" transform="matrix(0.923445 -0.383731 0.383731 0.923445 -5.543 15.142)"/><path d="M38.748 37.389C39.3748 34.1885 42.1777 31.8782 45.439 31.874L50.845 31.874C54.1063 31.8789 56.9091 34.1887 57.537 37.389L58.908 44.431C60.7612 41.5094 61.7886 38.1405 61.881 34.682 61.881 27.094 55.73 22 48.142 22 40.554 22 34.4 27.094 34.4 34.682 34.4924 38.1405 35.5198 41.5094 37.373 44.431Z"/><path d="M58.775 59.452 54.593 37.962C54.2437 36.1682 52.6725 34.8733 50.845 34.873L45.44 34.873C43.6124 34.8729 42.041 36.168 41.692 37.962L37.509 59.452C37.1064 61.5224 38.4584 63.5272 40.5288 63.9298 40.7687 63.9764 41.0126 64 41.257 64L55.028 64C57.1366 63.9997 58.8457 62.2901 58.8454 60.1814 58.8454 59.9366 58.8218 59.6923 58.775 59.452ZM43.575 58.273 44.875 51.591 51.412 51.591 52.712 58.273Z"/><path d="M45.943 81 41 81 41 85 49.943 85 49.943 83 54.888 83 54.888 79 45.943 79 45.943 81Z"/><path d="M45.943 74 41 74 41 78 49.943 78 49.943 76 54.888 76 54.888 72 45.943 72 45.943 74Z"/><path d="M54.888 90 54.888 86 45.943 86 45.943 88 41 88 41 90 54.888 90Z"/><path d="M49.943 67 46 67 41 67 41 71 49.943 71 49.943 69 55 69 55 67 49.943 67Z"/></svg>